<?xml version="1.0" standalone="no"?>
<!DOCTYPE svg PUBLIC "-//W3C//DTD SVG 1.1//EN" "http://www.w3.org/Graphics/SVG/1.1/DTD/svg11.dtd" >
<svg xmlns="http://www.w3.org/2000/svg" xmlns:xlink="http://www.w3.org/1999/xlink" version="1.1">
<metadata>
Created by FontForge 20170812 at Fri Oct 30 03:19:25 2020
 By www-data
Copyright (c) 2020 by Vladimir Nikolic. All rights reserved.
</metadata>
<defs>
<font id="AcademyFilled3D-Regular" horiz-adv-x="623" >
  <font-face 
    font-family="Academy Filled 3D"
    font-weight="400"
    font-stretch="normal"
    units-per-em="1000"
    panose-1="0 0 0 0 0 0 0 0 0 0"
    ascent="750"
    descent="-250"
    x-height="713"
    cap-height="715"
    bbox="1 -178 753 716"
    underline-thickness="50"
    underline-position="-100"
    unicode-range="U+001D-007A"
  />
<missing-glyph horiz-adv-x="227" 
 />
    <glyph glyph-name=".notdef" horiz-adv-x="227" 
 />
    <glyph glyph-name="NULL" horiz-adv-x="0" 
 />
    <glyph glyph-name="NULL" horiz-adv-x="0" 
 />
    <glyph glyph-name="nonmarkingreturn" horiz-adv-x="227" 
 />
    <glyph glyph-name="space" unicode=" " horiz-adv-x="227" 
 />
    <glyph glyph-name="E" unicode="E" horiz-adv-x="616" 
d="M305 177h58v39h-58v-39zM305 446h75l-12 17h-5v22h-58v-39zM573 215l20 -28v-240h-531l-21 30h-5v200h41v308h-15l-21 30h-5v200h537v-8l20 -28v-246h-148l16 -23v-187h112v-8zM520 27h-432v100h41v438h-41v100h432v-152h-105v52h-182v-169h156v-100h-156v-169h182v46
h105v-146zM565 215h-194v-46h-94v85h156v184h-156v85h94v-52h194v236h-521v-184h41v-354h-41v-184h521v230z" />
    <glyph glyph-name="F" unicode="F" horiz-adv-x="571" 
d="M306 446h54l-11 16h-5v23h-38v-39zM553 707l20 -28v-247h-122l16 -22v-194h-161v-39h20v-8l20 -28v-194h-284l-21 30h-5v200h41v308h-15l-21 30h-5v200h517v-8zM500 512h-103v53h-163v-169h160v-100h-160v-169h40v-100h-186v100h41v438h-41v100h412v-153zM545 707h-501
v-184h41v-354h-41v-184h274v184h-40v85h161v184h-161v85h74v-53h193v237z" />
    <glyph glyph-name="G" unicode="G" horiz-adv-x="614" 
d="M571 399l20 -28v-336l-92 -88h-345l-92 88l-15 21l-11 11v558l94 90h347l94 -90v-6l20 -28v-172h-203l-21 30h-5v36h-97v-78h306v-8zM519 88l-64 -61h-303l-64 61v516l64 61h303l64 -61v-105h-105v66h-221v-438h221v131h-107v99h212v-269zM563 399h-300v-183h107v-47
h-133v354h133v-66h193v165l-89 85h-341l-89 -85v-552l89 -85h341l89 85v329z" />
    <glyph glyph-name="H" unicode="H" horiz-adv-x="680" 
d="M352 531h-5v184h290v-8l20 -28v-178h-41v-344h21v-8l20 -28v-174h-284l-21 30h-5v180h40v59h-82v-59h20v-8l20 -28v-174h-283l-21 30h-5v180h40v344h-14l-21 30h-5v184h289v-8l20 -28v-178h-40v-55h82v55h-14zM584 107v-80h-185v80h41v189h-207v-189h40v-80h-185v80h40
v474h-40v84h185v-84h-40v-185h207v185h-41v84h185v-84h-40v-474h40zM588 149v390h41v168h-274v-168h40v-101h-118v101h40v168h-273v-168h40v-390h-40v-164h273v164h-40v105h118v-105h-40v-164h274v164h-41z" />
    <glyph glyph-name="I" unicode="I" horiz-adv-x="368" 
d="M41 535h-5v180h289v-8l20 -28v-174h-40v-348h20v-8l20 -28v-174h-283l-21 30h-5v180h40v348h-14zM273 107v-80h-185v80h40v478h-40v80h185v-80h-40v-478h40zM317 543v164h-273v-164h40v-394h-40v-164h273v164h-40v394h40z" />
    <glyph glyph-name="J" unicode="J" horiz-adv-x="536" 
d="M502 715v-8l20 -28v-173h-41v-471l-92 -88h-269l-92 88l-15 21l-11 11v196h208v-8l20 -28v-50h23v329h-15l-21 30h-5v179h290zM450 665v-79h-41v-498l-64 -61h-227l-64 61v125h104v-86h147v459h-41v79h186zM220 707v-163h41v-375h-59v86h-192v-185l89 -85h265l89 85v474
h41v163h-274z" />
    <glyph glyph-name="K" unicode="K" horiz-adv-x="659" 
d="M305 166h40l-40 47v-47zM41 535h-5v180h580v-8l20 -28v-174h-50l-146 -179l50 -60q18 -23 36 -44.5t38 -44.5h52v-8l20 -28v-194h-284l-13 19v-19h-277l-21 30h-5v200h41v328h-15zM541 585l-192 -230l192 -228h22v-100h-185v100h65q-19 21 -38 43.5t-37 45.5
q-19 23 -37 45.5t-36 43.5h-62v-178h41v-100h-186v100h41v458h-41v80h186v-80h-41v-180h62q129 159 148 180h-65v80h185v-80h-22zM608 543v164h-274v-164h14q-9 -11 -69 -91q-2 83 -2 91h32v164h-265v-164h41v-374h-41v-184h267v173h-34v101l88 -101h-31v-173h274v184h-47
l-154 186l154 188h47z" />
    <glyph glyph-name="L" unicode="L" horiz-adv-x="567" 
d="M541 253v-8l20 -28v-270h-499l-21 30h-5v199h40v321h-14l-21 30h-5v187h289v-8l20 -28v-181h-40v-321h27v77h209zM489 203v-176h-401v99h40v451h-40v87h185v-87h-40v-451h151v77h105zM340 245v-77h-63v367h40v171h-273v-171h40v-367h-40v-183h489v260h-193z" />
    <glyph glyph-name="M" unicode="M" horiz-adv-x="756" 
d="M464 219q-8 -12 -14 -24.5t-13 -24.5h27v49zM41 515h-5v200h227l111 -190l113 190h226v-8l20 -28v-194h-40v-315h20v-8l20 -28v-187h-283l-21 30h-5v167l-2 -4l-26 -48l-21 30q-2 -2 -2 -4l-68 130v-78h20v-8l20 -28v-187h-283l-21 30h-5v193h40v315h-14zM661 120v-93
h-185v93h40l-3 389q-34 -70 -69.5 -141l-70.5 -141l-146 278l6 -385h40v-93h-185v93h40v445h-40v100h145l140 -242l145 242h143v-100h-40v-445h40zM705 523v184h-213l-118 -198l-115 198h-215v-184h40v-361h-40v-177h273v177h-40v154l96 -182l22 41q19 35 38 70.5t39 70.5
v-154h-40v-177h273v177h-40v361h40z" />
    <glyph glyph-name="N" unicode="N" horiz-adv-x="664" 
d="M381 480v21h-9zM630 715v-8l20 -28v-178h-41v-554h-199l-21 30h-4l-39 90v-120h-284l-21 30h-5v200h41v326h-15l-21 30h-5v182h238l6 -16l15 -20l45 -104v140h290zM578 665v-84h-41v-554h-116l-187 438l-1 -338h41v-100h-186v100h41v456h-41v82h151l196 -432l-2 348h-41
v84h186zM348 707v-168h41v-111l-121 279h-224v-166h41v-372h-41v-184h274v171l73 -171h190v554h41v168h-274zM277 252q8 -20 17.5 -41.5t18.5 -41.5h-36v83z" />
    <glyph glyph-name="O" unicode="O" horiz-adv-x="600" 
d="M264 176h84v309h-84v-309zM557 599l20 -28v-510l-114 -114h-291l-110 110l-14 20l-12 12v512l111 113h292l118 -109v-6zM505 115l-86 -88h-248l-83 84v469q18 20 39.5 42t41.5 42h249l87 -80v-469zM400 126v439h-208v-439h208zM549 602l-113 104h-286l-106 -108v-505
l108 -108h285l112 112v505zM236 168v355h120v-355h-120z" />
    <glyph glyph-name="P" unicode="P" horiz-adv-x="602" 
d="M305 401h54v84h-54v-84zM568 625v-6l20 -28v-332l-92 -88h-191v-11h20v-8l20 -28v-177h-283l-21 30h-5v183h40v339h-14l-21 30h-5v185h437zM516 604v-292l-64 -61h-219v-141h40v-83h-185v83h40v469h-40v85h364zM411 351v214h-178v-214h178zM470 706h-426v-169h40v-385
h-40v-167h273v167h-40v57h194l89 85v328zM277 393v130h90v-130h-90z" />
    <glyph glyph-name="Q" unicode="Q" horiz-adv-x="600" 
d="M477 -42l-68 71h-232l-79 84v469l77 84h237l83 -80v-493l58 -68zM537 604l-107 104h-273l-101 -108v-505l103 -108h235l79 -87l135 124l-71 87v493zM239 525h114v-355h-114v355zM197 128h198v439h-198v-439zM545 601l20 -28v-484l54 -66l-3 -2l22 -31l-142 -130l-81 89
h-235l-106 111l-13 17l-13 15v511l106 113h279l112 -109v-6zM267 178h78v309h-78v-309z" />
    <glyph glyph-name="R" unicode="R" horiz-adv-x="621" 
d="M305 151h58v19h-58v-19zM305 399h58v86h-58v-86zM573 244l20 -28v-65h9v-8l20 -28v-168h-265l-11 16v-16h-284l-21 30h-5v174h41v334h-15l-21 30h-5v199h442l95 -90v-6l20 -28v-266l-46 -48l26 -26v-6zM550 101v-74h-167v74h32v149h-182v-149h41v-74h-186v74h41v464h-41
v99h368l64 -61v-226l-78 -76l78 -73v-127h30zM415 349v216h-182v-216h182zM565 246l-54 56l54 57v262l-90 85h-431v-183h41v-380h-41v-158h274v158h-41v65h94v-65h-32v-158h255v158h-29v103zM277 391v132h94v-132h-94z" />
    <glyph glyph-name="S" unicode="S" horiz-adv-x="601" 
d="M140 235h1l-8 11zM265 199v-22h84v39h-96zM265 446h97l-8 12h-5v27h-84v-39zM558 333l20 -28v-247l-118 -111h-289l-109 104l-15 21l-11 11v152h98l-72 69l-15 21l-11 11v270l118 108l291 1l113 -104v-6l20 -28v-149h-113l93 -89v-6zM506 111l-90 -84h-247l-81 77v81h105
v-58h208v169h-249l-64 61v228l88 79h55.5t67.5 0.5t68 0.5h56l83 -75v-82h-105v57h-208v-169h231l82 -78v-207zM550 336l-107 102h-206v85h120v-57h193v142l-108 99l-285 -1l-113 -103v-264l89 -85h224v-85h-120v58h-193v-141l106 -101h285l115 108v243z" />
    <glyph glyph-name="T" unicode="T" horiz-adv-x="605" 
d="M587 715v-8l20 -28v-239h-162l-22 30v-305h21v-8l20 -28v-182h-284l-21 30h-5v188h41v275h-160l-21 30h-5v245h578zM535 665v-145h-64v45h-120v-450h41v-88h-186v88h41v450h-120v-45h-65v145h473zM17 707v-229h154v54h32v-375h-41v-172h274v172h-41v375h32v-54h152v229
h-562z" />
    <glyph glyph-name="U" unicode="U" horiz-adv-x="649" 
d="M615 715v-8l20 -28v-175h-40v-448l-112 -109h-284l-107 109l-14 19l-12 13v416h-14l-21 30h-5v181h279v-8l20 -28v-175h-30v-327h71v327h-5l-21 30h-5v181h280zM563 665v-81h-40v-475l-84 -82h-243l-78 82v475h-40v81h175v-81h-30v-457h195v457h-30v81h175zM343 707v-165
h31v-373h-107v373h30v165h-263v-165h40v-451l104 -106h280l109 106v451h40v165h-264z" />
    <glyph glyph-name="V" unicode="V" horiz-adv-x="616" 
d="M14 529h-5v185h289v-8l20 -28v-179h-34l38 -190q6 27 12 55.5t11 57.5q3 14 5.5 26.5t4.5 25.5q1 8 2 13.5t2 11.5h-1l-21 30h-5v185h289v-8l20 -28v-177h-44l-121 -554h-273l-21 30h-5l-117 522h-25zM290 149h51l89 430h-46v85h185v-85h-35l-121 -552h-193l-124 552h-34
v85h184v-85h-46zM290 537v169h-273v-169h44l123 -552h265l121 554h43v167h-273v-169h37q-7 -27 -12 -56.5t-12 -60.5q-8 -45 -18.5 -93t-19.5 -87l-60 297h35z" />
    <glyph glyph-name="W" unicode="W" horiz-adv-x="767" 
d="M733 713v-8l20 -28v-180h-41v-551h-192l-21 30h-4l-87 133q-5 -7 -10 -14.5t-11 -17.5l-89 -131h-195l-21 30h-5v521h-15l-21 30h-5v186h290v-8l20 -28v-180h-41v-93q21 36 42.5 73t41.5 73l16 -31l7 -9l72 -135v122h-15l-21 30h-5v186h290zM681 663v-86h-41v-551h-115
l-134 214q-18 -25 -36.5 -53t-35.5 -54t-35.5 -54.5t-36.5 -52.5h-118v551h-41v86h186v-86h-41v-406l155 273l148 -281v414h-41v86h186zM451 705v-170h41v-194l-103 193l-112 -196v197h41v170h-274v-170h41v-551h187q37 53 58 84t33 49q8 14 14.5 22.5t11.5 15.5l111 -171
h184v551h41v170h-274z" />
    <glyph glyph-name="X" unicode="X" 
d="M104 491h-42l-21 30h-5v194h273v-8l14 -20v28h281v-8l20 -28v-188h-41l-117 -179l69 -112l18 -29v-1l4 -5h47v-8l20 -28v-182h-271l-21 30h-1v-30h-269l-21 30h-5v188h46l118 176zM115 571h-27v94h180v-94h-49l106 -180l93 180h-48v94h182v-94h-20l-149 -228l146 -228h23
v-88h-183v88h50l-98 170l-102 -170h50v-88h-181v88h21l153 227zM210 342l-124 -185h-42v-172h259v154h-18q9 13 17.5 27t17.5 27l36 -54h-21v-154h261v172h-42q-12 17 -56 88t-63 97q29 45 61 93.5t61 93.5h39v178h-265v-178h22q-6 -14 -14.5 -32t-15.5 -32l-38 64h16v178
h-257v-178h46z" />
    <glyph glyph-name="Y" unicode="Y" horiz-adv-x="574" 
d="M297 484h-7l4 -5zM583 714v-8l20 -28v-194h-48q-11 -20 -22 -39.5t-22 -38.5h-1l-19 -34l-22 -37q-13 -21 -25.5 -42.5t-24.5 -45.5v-84h20v-8l20 -28v-180h-283l-21 30h-5v186h40v114q-3 5 -7.5 12t-6.5 12l-25 44v-1l-18 31q-16 26 -31 53t-29 56h-38l-21 30h-5v200
h280v-8l16 -23v31h278zM531 664v-100h-31l-153 -275v-176h40v-86h-185v86h40v176q-38 69 -71 129.5t-70 126.5l-10 19h-29v100h184v-100h-53l102 -212l106 212h-56v100h186zM313 706v-184h23q-5 -11 -10 -17.5t-10 -12.5q-6 -6 -11 -13t-9 -17q-10 14 -19 30t-19 30h23v184
h-264v-184h48q22 -47 46 -89.5t47 -83.5q9 -17 19.5 -35t20.5 -35v-124h-40v-170h273v170h-40v125q17 35 36.5 66.5t36.5 61.5q15 26 32 54.5t33 59.5h46v184h-262z" />
    <glyph glyph-name="Z" unicode="Z" horiz-adv-x="614" 
d="M362 177v26l-21 -26h21zM265 448l29 37h-29v-37zM255 436h-193l-21 30h-5v249h535v-8l20 -28v-180l-207 -267h187v-8l20 -28v-249h-529l-21 30h-5v184zM421 565h-228v-49h-105v149h431v-118l-324 -420h219v55h105v-155h-431v118zM44 158v-173h519v239h-193v-55h-89
l282 365v173h-519v-233h193v49h97z" />
    <glyph glyph-name="a" unicode="a" 
d="M99 530h-5v184h438v-8l20 -28v-178h-33l69 -332h32v-8l20 -28v-185h-283l-21 30h-5v162h-24l11 -15v-177h-283l-21 30h-5v192h44l69 331h-2zM242 319h144l-47 225h-50zM568 126v-99h-185v99h45l-18 93h-192l-18 -93h46v-99h-185v108h34l98 430h-52v99h346v-99h-51
l97 -439h35zM569 160l-79 378h34v168h-422v-168h36q-8 -38 -78 -377h-43v-176h273v167h-37q0 5 1 12.5t1 12.5h118q0 -5 0.5 -13t0.5 -13h-35v-166h273v175h-43zM332 361h-36q4 19 9 38t9 38z" />
    <glyph glyph-name="b" unicode="b" horiz-adv-x="624" 
d="M305 177h67v39h-67v-39zM305 445h67v40h-67v-40zM581 280l20 -28v-217l-92 -88h-447l-21 30h-5v200h40v308h-14l-21 30h-5v199h451l94 -90v-6l20 -28v-222l-61 -46l41 -36v-6zM529 88l-64 -61h-377v100h40v438h-40v99h377l64 -61v-181l-83 -75l83 -82v-177zM424 127v169
h-191v-169h191zM424 395v170h-191v-170h191zM573 283l-73 64l73 56v218l-89 85h-440v-183h40v-354h-40v-184h440l89 85v213zM277 437v86h103v-86h-103zM277 169v85h103v-85h-103z" />
    <glyph glyph-name="c" unicode="c" horiz-adv-x="620" 
d="M577 270l20 -28v-207l-93 -88h-350l-92 88l-15 21l-11 11v557l94 90h352l95 -90v-6l20 -28v-204h-203l-21 30h-5v69h-103v-309h103v102h209v-8zM525 88l-64 -61h-309l-64 61v515l64 61h309l64 -61v-137h-105v99h-227v-439h227v102h105v-140zM569 270h-193v-102h-139v355
h139v-99h193v197l-90 85h-346l-89 -85v-551l89 -85h346l90 85v200z" />
    <glyph glyph-name="d" unicode="d" horiz-adv-x="613" 
d="M305 176h79v309h-79v-309zM594 578l20 -28v-478l-128 -125h-424l-21 30h-5v199h40v309h-14l-21 30h-5v199h425l133 -130v-6zM541 125l-99 -98h-354v99h40v439h-40v99h352l101 -101v-438zM436 126v439h-203v-439h203zM586 581l-128 125h-414v-183h40v-355h-40v-183h417
l125 122v474zM277 168v355h115v-355h-115z" />
    <glyph glyph-name="e" unicode="e" horiz-adv-x="616" 
d="M305 177h58v39h-58v-39zM305 446h75l-12 17h-5v22h-58v-39zM573 215l20 -28v-240h-531l-21 30h-5v200h41v308h-15l-21 30h-5v200h537v-8l20 -28v-246h-148l16 -23v-187h112v-8zM520 27h-432v100h41v438h-41v100h432v-152h-105v52h-182v-169h156v-100h-156v-169h182v46
h105v-146zM565 215h-194v-46h-94v85h156v184h-156v85h94v-52h194v236h-521v-184h41v-354h-41v-184h521v230z" />
    <glyph glyph-name="f" unicode="f" horiz-adv-x="571" 
d="M306 446h54l-11 16h-5v23h-38v-39zM553 707l20 -28v-247h-122l16 -22v-194h-161v-39h20v-8l20 -28v-194h-284l-21 30h-5v200h41v308h-15l-21 30h-5v200h517v-8zM500 512h-103v53h-163v-169h160v-100h-160v-169h40v-100h-186v100h41v438h-41v100h412v-153zM545 707h-501
v-184h41v-354h-41v-184h274v184h-40v85h161v184h-161v85h74v-53h193v237z" />
    <glyph glyph-name="g" unicode="g" horiz-adv-x="614" 
d="M571 399l20 -28v-336l-92 -88h-345l-92 88l-15 21l-11 11v558l94 90h347l94 -90v-6l20 -28v-172h-203l-21 30h-5v36h-97v-78h306v-8zM519 88l-64 -61h-303l-64 61v516l64 61h303l64 -61v-105h-105v66h-221v-438h221v131h-107v99h212v-269zM563 399h-300v-183h107v-47
h-133v354h133v-66h193v165l-89 85h-341l-89 -85v-552l89 -85h341l89 85v329z" />
    <glyph glyph-name="h" unicode="h" horiz-adv-x="680" 
d="M352 531h-5v184h290v-8l20 -28v-178h-41v-344h21v-8l20 -28v-174h-284l-21 30h-5v180h40v59h-82v-59h20v-8l20 -28v-174h-283l-21 30h-5v180h40v344h-14l-21 30h-5v184h289v-8l20 -28v-178h-40v-55h82v55h-14zM584 107v-80h-185v80h41v189h-207v-189h40v-80h-185v80h40
v474h-40v84h185v-84h-40v-185h207v185h-41v84h185v-84h-40v-474h40zM588 149v390h41v168h-274v-168h40v-101h-118v101h40v168h-273v-168h40v-390h-40v-164h273v164h-40v105h118v-105h-40v-164h274v164h-41z" />
    <glyph glyph-name="i" unicode="i" horiz-adv-x="344" 
d="M41 535h-5v180h289v-8l20 -28v-174h-40v-348h20v-8l20 -28v-174h-283l-21 30h-5v180h40v348h-14zM273 107v-80h-185v80h40v478h-40v80h185v-80h-40v-478h40zM317 543v164h-273v-164h40v-394h-40v-164h273v164h-40v394h40z" />
    <glyph glyph-name="j" unicode="j" horiz-adv-x="536" 
d="M502 715v-8l20 -28v-173h-41v-471l-92 -88h-269l-92 88l-15 21l-11 11v196h208v-8l20 -28v-50h23v329h-15l-21 30h-5v179h290zM450 665v-79h-41v-498l-64 -61h-227l-64 61v125h104v-86h147v459h-41v79h186zM220 707v-163h41v-375h-59v86h-192v-185l89 -85h265l89 85v474
h41v163h-274z" />
    <glyph glyph-name="k" unicode="k" horiz-adv-x="659" 
d="M305 166h40l-40 47v-47zM41 535h-5v180h580v-8l20 -28v-174h-50l-146 -179l50 -60q18 -23 36 -44.5t38 -44.5h52v-8l20 -28v-194h-284l-13 19v-19h-277l-21 30h-5v200h41v328h-15zM541 585l-192 -230l192 -228h22v-100h-185v100h65q-19 21 -38 43.5t-37 45.5
q-19 23 -37 45.5t-36 43.5h-62v-178h41v-100h-186v100h41v458h-41v80h186v-80h-41v-180h62q18 21 73.5 90t74.5 90h-65v80h185v-80h-22zM608 543v164h-274v-164h14q-9 -11 -35 -46t-34 -45q0 10 -1 46.5t-1 44.5h32v164h-265v-164h41v-374h-41v-184h267v173h-34v101l88 -101
h-31v-173h274v184h-47l-154 186l154 188h47z" />
    <glyph glyph-name="l" unicode="l" horiz-adv-x="567" 
d="M541 253v-8l20 -28v-270h-499l-21 30h-5v199h40v321h-14l-21 30h-5v187h289v-8l20 -28v-181h-40v-321h27v77h209zM489 203v-176h-401v99h40v451h-40v87h185v-87h-40v-451h151v77h105zM340 245v-77h-63v367h40v171h-273v-171h40v-367h-40v-183h489v260h-193z" />
    <glyph glyph-name="m" unicode="m" horiz-adv-x="756" 
d="M464 219q-8 -12 -14 -24.5t-13 -24.5h27v49zM41 515h-5v200h227l111 -190l113 190h226v-8l20 -28v-194h-40v-315h20v-8l20 -28v-187h-283l-21 30h-5v167l-2 -4l-26 -48l-21 30q-2 -2 -2 -4l-68 130v-78h20v-8l20 -28v-187h-283l-21 30h-5v193h40v315h-14zM661 120v-93
h-185v93h40l-3 389q-34 -70 -69.5 -141l-70.5 -141l-146 278l6 -385h40v-93h-185v93h40v445h-40v100h145l140 -242l145 242h143v-100h-40v-445h40zM705 523v184h-213l-118 -198l-115 198h-215v-184h40v-361h-40v-177h273v177h-40v154l96 -182l22 41q19 35 38 70.5t39 70.5
v-154h-40v-177h273v177h-40v361h40z" />
    <glyph glyph-name="n" unicode="n" horiz-adv-x="664" 
d="M381 480v21h-9zM630 715v-8l20 -28v-178h-41v-554h-199l-21 30h-4l-39 90v-120h-284l-21 30h-5v200h41v326h-15l-21 30h-5v182h238l6 -16l15 -20l45 -104v140h290zM578 665v-84h-41v-554h-116l-187 438l-1 -338h41v-100h-186v100h41v456h-41v82h151l196 -432l-2 348h-41
v84h186zM348 707v-168h41v-111l-121 279h-224v-166h41v-372h-41v-184h274v171l73 -171h190v554h41v168h-274zM277 252q8 -20 17.5 -41.5t18.5 -41.5h-36v83z" />
    <glyph glyph-name="o" unicode="o" horiz-adv-x="599" 
d="M263 176h84v309h-84v-309zM556 599l20 -28v-510l-114 -114h-291l-110 110l-14 20l-12 12v512l111 113h292l118 -109v-6zM504 115l-86 -88h-248l-83 84v469q18 20 39.5 42t41.5 42h249l87 -80v-469zM399 126v439h-208v-439h208zM548 602l-113 104h-286l-106 -108v-505
l108 -108h285l112 112v505zM235 168v355h120v-355h-120z" />
    <glyph glyph-name="p" unicode="p" horiz-adv-x="602" 
d="M305 401h54v84h-54v-84zM568 625v-6l20 -28v-332l-92 -88h-191v-11h20v-8l20 -28v-177h-283l-21 30h-5v183h40v339h-14l-21 30h-5v185h437zM516 604v-292l-64 -61h-219v-141h40v-83h-185v83h40v469h-40v85h364zM411 351v214h-178v-214h178zM470 706h-426v-169h40v-385
h-40v-167h273v167h-40v57h194l89 85v328zM277 393v130h90v-130h-90z" />
    <glyph glyph-name="q" unicode="q" horiz-adv-x="599" 
d="M477 -42l-68 71h-232l-79 84v469l77 84h237l83 -80v-493l58 -68zM537 604l-107 104h-273l-101 -108v-505l103 -108h235l79 -87l135 124l-71 87v493zM239 525h114v-355h-114v355zM197 128h198v439h-198v-439zM545 601l20 -28v-484l54 -66l-3 -2l22 -31l-142 -130l-81 89
h-235l-106 111l-13 17l-13 15v511l106 113h279l112 -109v-6zM267 178h78v309h-78v-309z" />
    <glyph glyph-name="r" unicode="r" horiz-adv-x="621" 
d="M305 151h58v19h-58v-19zM305 399h58v86h-58v-86zM573 244l20 -28v-65h9v-8l20 -28v-168h-265l-11 16v-16h-284l-21 30h-5v174h41v334h-15l-21 30h-5v199h442l95 -90v-6l20 -28v-266l-46 -48l26 -26v-6zM550 101v-74h-167v74h32v149h-182v-149h41v-74h-186v74h41v464h-41
v99h368l64 -61v-226l-78 -76l78 -73v-127h30zM415 349v216h-182v-216h182zM565 246l-54 56l54 57v262l-90 85h-431v-183h41v-380h-41v-158h274v158h-41v65h94v-65h-32v-158h255v158h-29v103zM277 391v132h94v-132h-94z" />
    <glyph glyph-name="s" unicode="s" horiz-adv-x="600" 
d="M139 235h1l-8 11zM264 199v-22h84v39h-96zM264 446h97l-8 12h-5v27h-84v-39zM557 333l20 -28v-247l-118 -111h-289l-109 104l-15 21l-11 11v152h98l-72 69l-15 21l-11 11v270l118 108l291 1l113 -104v-6l20 -28v-149h-113l93 -89v-6zM505 111l-90 -84h-247l-81 77v81h105
v-58h208v169h-249l-64 61v228l88 79h55.5t67.5 0.5t68 0.5h56l83 -75v-82h-105v57h-208v-169h231l82 -78v-207zM549 336l-107 102h-206v85h120v-57h193v142l-108 99l-285 -1l-113 -103v-264l89 -85h224v-85h-120v58h-193v-141l106 -101h285l115 108v243z" />
    <glyph glyph-name="t" unicode="t" horiz-adv-x="605" 
d="M587 715v-8l20 -28v-239h-162l-22 30v-305h21v-8l20 -28v-182h-284l-21 30h-5v188h41v275h-160l-21 30h-5v245h578zM535 665v-145h-64v45h-120v-450h41v-88h-186v88h41v450h-120v-45h-65v145h473zM17 707v-229h154v54h32v-375h-41v-172h274v172h-41v375h32v-54h152v229
h-562z" />
    <glyph glyph-name="u" unicode="u" 
d="M615 715v-8l20 -28v-175h-40v-448l-112 -109h-284l-107 109l-14 19l-12 13v416h-14l-21 30h-5v181h279v-8l20 -28v-175h-30v-327h71v327h-5l-21 30h-5v181h280zM563 665v-81h-40v-475l-84 -82h-243l-78 82v475h-40v81h175v-81h-30v-457h195v457h-30v81h175zM343 707v-165
h31v-373h-107v373h30v165h-263v-165h40v-451l104 -106h280l109 106v451h40v165h-264z" />
    <glyph glyph-name="v" unicode="v" horiz-adv-x="621" 
d="M19 529h-5v185h289v-8l20 -28v-179h-34l38 -190q6 27 12 55.5t11 57.5q3 14 5.5 26.5t4.5 25.5q1 8 2 13.5t2 11.5h-1l-21 30h-5v185h289v-8l20 -28v-177h-44l-121 -554h-273l-21 30h-5l-117 522h-25zM295 149h51l89 430h-46v85h185v-85h-35l-121 -552h-193l-124 552h-34
v85h184v-85h-46zM295 537v169h-273v-169h44l123 -552h265l121 554h43v167h-273v-169h37q-7 -27 -12 -56.5t-12 -60.5q-8 -45 -18.5 -93t-19.5 -87l-60 297h35z" />
    <glyph glyph-name="w" unicode="w" horiz-adv-x="766" 
d="M732 713v-8l20 -28v-180h-41v-551h-192l-21 30h-4l-87 133q-5 -7 -10 -14.5t-11 -17.5l-89 -131h-195l-21 30h-5v521h-15l-21 30h-5v186h290v-8l20 -28v-180h-41v-93q21 36 42.5 73t41.5 73l16 -31l7 -9l72 -135v122h-15l-21 30h-5v186h290zM680 663v-86h-41v-551h-115
l-134 214q-18 -25 -72 -107.5t-72 -106.5h-118v551h-41v86h186v-86h-41v-406l155 273l148 -281v414h-41v86h186zM450 705v-170h41v-194l-103 193l-112 -196v197h41v170h-274v-170h41v-551h187q37 53 68 100t37.5 55.5t11.5 15.5l111 -171h184v551h41v170h-274z" />
    <glyph glyph-name="x" unicode="x" horiz-adv-x="615" 
d="M96 491h-42l-21 30h-5v194h273v-8l14 -20v28h281v-8l20 -28v-188h-41l-117 -179l87 -141v-1l4 -5h47v-8l20 -28v-182h-271l-21 30h-1v-30h-269l-21 30h-5v188h46l118 176zM107 571h-27v94h180v-94h-49l106 -180l93 180h-48v94h182v-94h-20l-149 -228l146 -228h23v-88
h-183v88h50l-98 170l-102 -170h50v-88h-181v88h21l153 227zM202 342l-124 -185h-42v-172h259v154h-18q9 13 17.5 27t17.5 27l36 -54h-21v-154h261v172h-42q-12 17 -56 88t-63 97q29 45 61 93.5t61 93.5h39v178h-265v-178h22q-6 -14 -14.5 -32t-15.5 -32l-38 64h16v178h-257
v-178h46z" />
    <glyph glyph-name="y" unicode="y" horiz-adv-x="574" 
d="M583 714v-8l20 -28v-194h-48q-39 -66 -62.5 -107t-38 -66t-22 -38.5t-13.5 -25.5v-84h20v-8l20 -28v-180h-283l-21 30h-5v186h40v114q-29 50 -48.5 83t-32 56t-21 38.5t-15.5 29.5h-38l-21 30h-5v200h280v-8l16 -23v31h278zM531 664v-100h-31l-153 -275v-176h40v-86h-185
v86h40v176q-38 69 -71 129.5t-70 126.5l-10 19h-29v100h184v-100h-53l102 -212l106 212h-56v100h186zM313 706v-184h23q-5 -11 -40 -60q-28 46 -38 60h23v184h-264v-184h48q22 -47 72.5 -136.5t60.5 -106.5v-124h-40v-170h273v170h-40v125q122 211 138 242h46v184h-262z" />
    <glyph glyph-name="z" unicode="z" horiz-adv-x="613" 
d="M361 177v26l-21 -26h21zM264 448l29 37h-29v-37zM254 436h-193l-21 30h-5v249h535v-8l20 -28v-180l-207 -267h187v-8l20 -28v-249h-529l-21 30h-5v184zM420 565h-228v-49h-105v149h431v-118l-324 -420h219v55h105v-155h-431v118zM43 158v-173h519v239h-193v-55h-89
l282 365v173h-519v-233h193v49h97z" />
    <glyph glyph-name="D" unicode="D" horiz-adv-x="637" 
d="M305 176h79v309h-79v-309zM594 578l20 -28v-478l-128 -125h-424l-21 30h-5v199h40v309h-14l-21 30h-5v199h425l133 -130v-6zM541 125l-99 -98h-354v99h40v439h-40v99h352l101 -101v-438zM436 126v439h-203v-439h203zM586 581l-128 125h-414v-183h40v-355h-40v-183h417
l125 122v474zM277 168v355h115v-355h-115z" />
    <glyph glyph-name="exclam" unicode="!" horiz-adv-x="329" 
d="M264 714v-8l20 -28v-521h-11l11 -16v-194h-203l-21 30h-5v200h12l-7 10h-5v527h209zM212 127v-100h-105v100h105zM212 664v-434h-105v434h105zM63 706v-511h193v511h-193zM63 169v-184h193v184h-193z" />
    <glyph glyph-name="quotesingle" unicode="'" horiz-adv-x="242" 
d="M237 713v-8l20 -28v-181l-158 -140l-22 31l-4 -4v101h-20l-21 30h-5v199h210zM185 663v-117l-60 -52v70h-45v99h105zM35 705v-183h46v-122l148 131v174h-194z" />
    <glyph glyph-name="comma" unicode="," horiz-adv-x="238" 
d="M210 176v-8l20 -28v-181l-154 -137l-22 31l-4 -4l-3 98h-20l-21 30h-5v199h209zM158 126v-117l-60 -57v75h-45v99h105zM9 168v-183h45l4 -119l144 128v174h-193z" />
    <glyph glyph-name="period" unicode="." horiz-adv-x="237" 
d="M209 177v-8l20 -28v-194h-202l-21 30h-5v200h208zM157 127v-100h-104v100h104zM9 169v-184h192v184h-192z" />
    <glyph glyph-name="zero" unicode="0" horiz-adv-x="633" 
d="M285 176h84v309h-84v-309zM578 618l20 -28v-555l-92 -88h-332l-91 88l-15 21l-11 11v557l93 90h334l94 -90v-6zM526 88l-64 -61h-290l-63 61v515l63 61h290l64 -61v-515zM421 126v439h-208v-439h208zM570 621l-89 85h-328l-88 -85v-551l88 -85h328l89 85v551zM257 168
v355h120v-355h-120z" />
    <glyph glyph-name="one" unicode="1" horiz-adv-x="438" 
d="M57 515h-5v200h290v-8l20 -28v-502h44v-8l20 -28v-194h-328l-21 30h-5v200h61v308h-55zM354 127v-100h-230v100h61v438h-81v100h186v-538h64zM334 169v538h-274v-184h81v-354h-61v-184h318v184h-64z" />
    <glyph glyph-name="two" unicode="2" horiz-adv-x="638" 
d="M288 446h90v39h-90v-39zM288 177h90v39h-90v-39zM586 213l20 -28v-238h-521l-21 30h-5v379l90 86h-64l-21 30h-5v153l94 89h339l94 -89v-6l20 -28v-287l-87 -83h67v-8zM534 27h-423v308l64 61h255v169h-214v-43h-105v82l64 60h295l64 -60v-247l-64 -61h-254v-169h214v49
h104v-149zM578 213h-192v-44h-126v85h229l89 85v283l-89 84h-333l-89 -84v-142h193v43h126v-85h-230l-89 -85v-368h511v228z" />
    <glyph glyph-name="three" unicode="3" 
d="M280 446h81v39h-81v-39zM280 177h81v39h-97l16 -23v-16zM475 715l94 -90v-6l20 -28v-226l-50 -44q8 -7 15 -14t15 -13v-6l20 -28v-225l-92 -88h-328l-92 88l-15 21l-11 11v162h164l-12 17h-5v184h-121l-21 30h-5v165l94 90h330zM454 665l63 -61v-186l-89 -72l89 -73v-185
l-63 -61h-287l-64 61v91h105v-52h205v169h-163v100h163v169h-205v-55h-105v94l64 61h287zM148 707l-89 -85v-154h193v55h117v-85h-163v-184h163v-85h-117v52h-193v-151l89 -85h324l89 85v221l-60 55l60 54v222l-89 85h-324z" />
    <glyph glyph-name="four" unicode="4" horiz-adv-x="577" 
d="M507 369h21v-8l20 -28v-194h-18l18 -26v-166h-285l-21 30h-5v162h-180l-21 30h-5v200l66 91q38 54 66 93t50 67l25 34l10 13l32 47h207v-8l20 -28v-309zM475 99v-72h-185v72h41v120h-248v135l224 310h127v-345h41v-100h-41v-120h41zM331 319v224l-145 -224h145zM479 141
v36h41v184h-41v345h-194q-12 -19 -29 -41t-37 -50q-29 -38 -71 -97t-109 -152v-189h247v-36h-41v-156h275v156h-41zM264 361l22 32v-32h-22z" />
    <glyph glyph-name="five" unicode="5" horiz-adv-x="639" 
d="M293 177h85v39h-100l15 -21v-18zM293 446h102l-12 18h-5v21h-85v-39zM586 350l20 -28v-287l-91 -88h-333l-92 88l-15 21l-11 11v164h15l-10 15h-5v469h522v-8l20 -28v-245h-101l81 -78v-6zM534 88l-63 -61h-291l-64 61v93h105v-54h209v169h-314v369h418v-151h-104v51
h-209v-169h250l63 -61v-247zM578 353l-88 85h-225v85h121v-51h192v235h-506v-453h314v-85h-121v54h-193v-153l89 -85h329l88 85v283z" />
    <glyph glyph-name="six" unicode="6" horiz-adv-x="636" 
d="M286 177h89v39h-89v-39zM286 446h100l-6 9h-5v30h-89v-39zM584 350l20 -28v-287l-92 -88h-337l-92 88l-15 21l-11 11v558l94 90h339l94 -90v-6l20 -28v-166h-92l72 -69v-6zM214 296v-169h213v169h-213zM532 88l-64 -61h-295l-64 61v516l64 61h295l64 -61v-99h-105v60
h-213v-169h254l64 -61v-247zM576 353l-89 85h-229v85h125v-60h193v159l-89 85h-333l-89 -85v-552l89 -85h333l89 85v283zM383 254v-85h-125v85h125z" />
    <glyph glyph-name="seven" unicode="7" horiz-adv-x="555" 
d="M257 422q5 16 9.5 31.5t9.5 31.5h-19v-63zM526 714v-8l20 -28v-167l-119 -351v-5l20 -28v-180h-295l-21 30h-5v186h49q2 9 5.5 17.5t5.5 17.5l12 36l5 17l14 46t15 44l11 36l12 40h-200l-21 30h-5v267h497zM474 664v-125l-15 -40q-17 -45 -35 -94t-35.5 -99t-32.5 -99
t-26 -94h45v-86h-197v86h36l148 452h-177v-68h-104v167h393zM37 706v-251h192v68h71q-16 -45 -31 -91.5t-29 -92.5q-15 -45 -29.5 -92.5t-28.5 -91.5h-48v-170h285v170h-33l132 391v160h-481z" />
    <glyph glyph-name="eight" unicode="8" horiz-adv-x="625" 
d="M286 446h77v39h-77v-39zM286 177h77v39h-77v-39zM571 284l20 -28v-221l-92 -88h-324l-92 88l-15 21l-11 11v225l53 52q-8 7 -14.5 13t-12.5 14l-13 18l-13 14v222l94 89h326l94 -89v-6l20 -28v-217l-57 -52l37 -32v-6zM519 88l-64 -61h-282l-64 61v182l75 76
q-17 19 -37 39t-38 39v180l64 60h282l64 -60v-178l-84 -79l84 -78v-181zM415 127v169h-201v-169h201zM415 396v169h-201v-169h201zM563 287l-68 60l68 62v213l-89 84h-320l-89 -84v-216q14 -14 29.5 -30t29.5 -30l-59 -58v-218l89 -85h320l89 85v217zM258 169v85h113v-85
h-113zM258 438v85h113v-85h-113z" />
    <glyph glyph-name="nine" unicode="9" horiz-adv-x="639" 
d="M286 446h89v39h-89v-39zM286 177h89v39h-108l19 -27v-12zM57 625l94 90h339l94 -90v-6l20 -28v-556l-92 -88h-337l-92 88l-15 21l-11 11v158h108l-82 79l-15 21l-11 11v289zM427 396v169h-213v-169h213zM109 604l64 61h295l64 -61v-516l-64 -61h-295l-64 61v87h105v-48
h213v169h-254l-64 61v247zM65 339l89 -85h229v-85h-125v48h-193v-147l89 -85h333l89 85v552l-89 85h-333l-89 -85v-283zM258 438v85h125v-85h-125z" />
    <glyph glyph-name="question" unicode="?" horiz-adv-x="586" 
d="M251 431l16 15h74v39h-90v-54zM185 177l-8 11h-5v168l55 52h-178l-21 30h-5v187l95 90h337l95 -90v-6l20 -28v-287l-93 -88h-76v-58h-12l12 -17v-194h-203l-21 30h-5v200h13zM497 357l-64 -61h-105v-58h-104v97l65 61h105v169h-215v-77h-104v116l64 61h294l64 -61v-247z
M328 127v-100h-104v100h104zM542 622l-90 85h-331l-90 -85v-176h192v77h126v-85h-79l-90 -85v-157h193v58h79l90 85v283zM180 169v-184h193v184h-193z" />
    <glyph glyph-name="colon" unicode=":" horiz-adv-x="300" 
d="M250 177v-8l20 -28v-194h-202l-21 30h-5v200h208zM254 705v-8l20 -28v-194h-202l-21 30h-5v200h208zM202 655v-100h-104v100h104zM54 697v-184h192v184h-192zM198 127v-100h-104v100h104zM50 169v-184h192v184h-192z" />
    <glyph glyph-name="semicolon" unicode=";" horiz-adv-x="300" 
d="M254 705v-8l20 -28v-194h-202l-21 30h-5v200h208zM251 176v-8l20 -28v-181l-154 -137l-22 31l-4 -4l-3 98h-20l-21 30h-5v199h209zM199 126v-117l-60 -57v75h-45v99h105zM50 168v-183h45l4 -119l144 128v174h-193zM202 655v-100h-104v100h104zM54 697v-184h192v184h-192z
" />
    <glyph glyph-name="B" unicode="B" horiz-adv-x="624" 
d="M305 177h67v39h-67v-39zM305 445h67v40h-67v-40zM581 280l20 -28v-217l-92 -88h-447l-21 30h-5v200h40v308h-14l-21 30h-5v199h451l94 -90v-6l20 -28v-222l-61 -46l41 -36v-6zM529 88l-64 -61h-377v100h40v438h-40v99h377l64 -61v-181l-83 -75l83 -82v-177zM424 127v169
h-191v-169h191zM424 395v170h-191v-170h191zM573 283l-73 64l73 56v218l-89 85h-440v-183h40v-354h-40v-184h440l89 85v213zM277 437v86h103v-86h-103zM277 169v85h103v-85h-103z" />
    <glyph glyph-name="C" unicode="C" horiz-adv-x="620" 
d="M577 270l20 -28v-207l-93 -88h-350l-92 88l-15 21l-11 11v557l94 90h352l95 -90v-6l20 -28v-204h-203l-21 30h-5v69h-103v-309h103v102h209v-8zM525 88l-64 -61h-309l-64 61v515l64 61h309l64 -61v-137h-105v99h-227v-439h227v102h105v-140zM569 270h-193v-102h-139v355
h139v-99h193v197l-90 85h-346l-89 -85v-551l89 -85h346l90 85v200z" />
    <glyph glyph-name="A" unicode="A" 
d="M99 530h-5v184h438v-8l20 -28v-178h-33l69 -332h32v-8l20 -28v-185h-283l-21 30h-5v162h-24l11 -15v-177h-283l-21 30h-5v192h44l69 331h-2zM242 319h144l-47 225h-50zM568 126v-99h-185v99h45l-18 93h-192l-18 -93h46v-99h-185v108h34l98 430h-52v99h346v-99h-51
l97 -439h35zM569 160l-79 378h34v168h-422v-168h36q-8 -38 -78 -377h-43v-176h273v167h-37q0 5 1 12.5t1 12.5h118q0 -5 0.5 -13t0.5 -13h-35v-166h273v175h-43zM332 361h-36q4 19 9 38t9 38z" />
    </font>
</defs>
</svg>
