<?xml version="1.0" standalone="no"?>
<!DOCTYPE svg PUBLIC "-//W3C//DTD SVG 1.1//EN" "http://www.w3.org/Graphics/SVG/1.1/DTD/svg11.dtd" >
<svg xmlns="http://www.w3.org/2000/svg" xmlns:xlink="http://www.w3.org/1999/xlink" version="1.1">
<metadata>
Created by FontForge 20170812 at Mon Aug 31 12:38:02 2020
 By www-data
Copyright (c) 2019 by Arterfak Project. All rights reserved.
</metadata>
<defs>
<font id="CherioneNormal" horiz-adv-x="722" >
  <font-face 
    font-family="Cherione Normal"
    font-weight="400"
    font-stretch="normal"
    units-per-em="1000"
    panose-1="0 0 0 0 0 0 0 0 0 0"
    ascent="750"
    descent="-250"
    x-height="715"
    cap-height="714"
    bbox="-45 -237.735 1440 978"
    underline-thickness="50"
    underline-position="-150"
    unicode-range="U+000D-20AC"
  />
<missing-glyph horiz-adv-x="350" 
 />
    <glyph glyph-name=".notdef" horiz-adv-x="350" 
 />
    <glyph glyph-name=".null" horiz-adv-x="0" 
 />
    <glyph glyph-name="nonmarkingreturn" horiz-adv-x="333" 
 />
    <glyph glyph-name="NULL" horiz-adv-x="0" 
 />
    <glyph glyph-name="NULL" horiz-adv-x="0" 
 />
    <glyph glyph-name="CR" unicode="&#xd;" horiz-adv-x="350" 
 />
    <glyph glyph-name="space" unicode=" " horiz-adv-x="350" 
 />
    <glyph glyph-name="exclam" unicode="!" horiz-adv-x="246" 
d="M146 148h-45l-13 567h70zM123 88q18 0 30.5 -13t12.5 -31t-12.5 -30.5t-30.5 -12.5t-30.5 12.5t-12.5 30.5t12.5 31t30.5 13z" />
    <glyph glyph-name="quotedbl" unicode="&#x22;" horiz-adv-x="371" 
d="M124 715q18 0 30.5 -13t12.5 -31q0 -39 -27 -74t-48 -45l-12 19q30 23 35 58q-15 3 -25 14.5t-10 27.5q0 18 13 31t31 13zM248 715q18 0 30.5 -13t12.5 -31q0 -39 -27 -74t-48 -45l-12 19q30 23 35 58q-15 3 -25 14.5t-10 27.5q0 18 13 31t31 13z" />
    <glyph glyph-name="numbersign" unicode="#" horiz-adv-x="652" 
d="M499 715l-28 -228h101l-6 -55h-102l-18 -148h102l-7 -55h-102l-28 -228h-55l28 228h-147l-28 -228h-55l28 228h-102l7 55h101l18 148h-101l7 55h101l28 228h55l-28 -228h148l28 228h55zM391 284l18 148h-148l-18 -148h148z" />
    <glyph glyph-name="dollar" unicode="$" horiz-adv-x="667" 
d="M501 326q39 -28 62 -64q24 -40 24 -90q0 -86 -73 -136q-67 -45 -165 -45v-97h-55v100q-135 18 -214 123l59 37q16 -23 49 -47q46 -31 106 -42v282q-88 34 -130 63q-37 25 -56 56q-23 33 -23 79q0 86 72 130q53 34 137 38v77h55v-76q55 -3 111.5 -22t79.5 -32t32 -20
l-20 -29l-19 -29q-3 3 -24.5 15t-68 28t-91.5 19v-244q107 -42 152 -74zM203 468q32 -22 91 -46v221q-64 -5 -100 -27q-39 -26 -39 -71q0 -44 48 -77zM474 94q43 28 43 78q0 57 -56 97q-38 27 -112 56v-264q78 0 125 33z" />
    <glyph glyph-name="percent" unicode="%" horiz-adv-x="858" 
d="M624 302q64 0 109 -45t45 -109t-45 -109.5t-109 -45.5t-109 45.5t-45 109.5t45 109t109 45zM624 48q41 0 70 29.5t29 70.5q0 40 -29.5 69.5t-69.5 29.5q-41 0 -70 -29t-29 -70t29 -70.5t70 -29.5zM389 573q0 -64 -45.5 -109t-109.5 -45t-109 45t-45 109t45 109t109 45
t109.5 -45t45.5 -109zM234 474q41 0 70.5 29t29.5 70t-29.5 70t-70.5 29t-70 -29t-29 -70t29 -70t70 -29zM561 715h55l-319 -714h-55z" />
    <glyph glyph-name="ampersand" unicode="&#x26;" horiz-adv-x="691" 
d="M204 546q0 -41 29 -70t70 -29h308v-70h-85v-153q0 -94 -66 -158q-65 -65 -157 -65q-93 0 -158 65t-65 158t65 158q21 21 48 36q-59 51 -59 128q0 71 56 121q54 48 136 48q73 0 128 -37q31 -22 46 -52q18 -31 18 -73h-70q0 43 -34 67q-34 25 -88 25q-53 0 -87.5 -28
t-34.5 -71zM456 377h-153q-64 0 -108.5 -45t-44.5 -108t44.5 -108t108.5 -45q63 0 108 45t45 108v153z" />
    <glyph glyph-name="quotesingle" unicode="'" horiz-adv-x="247" 
d="M80 571q31 24 34 58q-15 3 -24.5 15t-9.5 27q0 18 12.5 31t30.5 13t31 -13t13 -31q0 -38 -27.5 -73t-47.5 -46z" />
    <glyph glyph-name="parenleft" unicode="(" horiz-adv-x="356" 
d="M135 350q0 -108 36 -197t105 -145l-21 -27q-175 142 -175 369q0 226 175 368l21 -27q-69 -56 -105 -145t-36 -196z" />
    <glyph glyph-name="parenright" unicode=")" horiz-adv-x="356" 
d="M101 718q175 -141 175 -368q0 -228 -175 -369l-21 27q69 56 105 145t36 197q0 107 -36 196t-105 145z" />
    <glyph glyph-name="asterisk" unicode="*" horiz-adv-x="484" 
d="M387 629l17 -52l-131 -34l86 -104l-45 -33l-72 115l-73 -115l-44 33l86 104l-131 34l17 52l126 -50l-9 136h55l-8 -136z" />
    <glyph glyph-name="plus" unicode="+" horiz-adv-x="431" 
d="M243 485v-108h108v-55h-108v-108h-55v108h-108v55h108v108h55z" />
    <glyph glyph-name="comma" unicode="," horiz-adv-x="247" 
d="M124 88q18 0 30.5 -13t12.5 -31q0 -38 -27.5 -73.5t-47.5 -44.5l-12 18q30 23 35 58q-15 3 -25 15t-10 27q0 18 13 31t31 13z" />
    <glyph glyph-name="hyphen" unicode="-" horiz-adv-x="377" 
d="M80 322v55h217v-55h-217z" />
    <glyph glyph-name="period" unicode="." horiz-adv-x="247" 
d="M124 88q18 0 30.5 -13t12.5 -31t-12.5 -30.5t-30.5 -12.5t-31 12.5t-13 30.5t13 31t31 13z" />
    <glyph glyph-name="slash" unicode="/" horiz-adv-x="534" 
d="M399 715h55l-319 -714h-55z" />
    <glyph glyph-name="zero" unicode="0" 
d="M361 730q122 0 201 -101q80 -102 80 -266t-80 -266q-79 -101 -201 -101q-123 0 -201 101q-80 102 -80 266t80 266q78 101 201 101zM507 135q65 83 65 228t-65 228q-58 76 -146 76q-90 0 -146 -76q-65 -83 -65 -228t65 -228q56 -76 146 -76q88 0 146 76z" />
    <glyph glyph-name="one" unicode="1" horiz-adv-x="299" 
d="M80 645v70h139v-714h-70v644h-69z" />
    <glyph glyph-name="two" unicode="2" horiz-adv-x="628" 
d="M478 401l-255 -330h325v-70h-468l343 443q26 32 31.5 69.5t-10.5 70.5q-33 69 -126 71h-5q-64 0 -122 -29l-42 -27l-47 51q8 8 27 21.5t73 33.5t111 20h6q67 -2 117 -32q49 -30 71 -79q25 -51 17 -108.5t-46 -104.5z" />
    <glyph glyph-name="three" unicode="3" horiz-adv-x="659" 
d="M432 454q46 -18 80 -52q67 -69 67 -171q0 -104 -76 -174q-75 -66 -180 -66q-83 0 -150 46q-66 46 -93 119l66 24q20 -53 68.5 -86t108.5 -33q80 0 133 48.5t53 121.5q0 77 -49.5 124.5t-130.5 47.5l-104 -2l194 244h-283v70h429l-195 -245q35 -5 62 -16z" />
    <glyph glyph-name="four" unicode="4" horiz-adv-x="684" 
d="M546 715v-481h58v-60h-58v-173h-70v173h-396l386 541h80zM476 234v375l-270 -375h270z" />
    <glyph glyph-name="five" unicode="5" horiz-adv-x="598" 
d="M267 498q104 0 178 -74q73 -73 73 -177t-73 -177q-74 -74 -178 -74q-112 0 -185 84l52 46q54 -60 133 -60q75 0 128 53t53 128t-53 128t-128 53q-29 0 -59 -7.5t-52 -18t-40 -21.5t-27 -19l-9 -7l56 360h339v-70h-279l-26 -164q49 17 97 17z" />
    <glyph glyph-name="six" unicode="6" horiz-adv-x="664" 
d="M342 500q96 0 169 -68.5t73 -183.5q0 -106 -74 -178q-72 -74 -178 -74t-178 74q-74 72 -74 178q0 244 126 364q106 103 280 103v-60q-42 0 -83 -9.5t-86 -32t-82.5 -69t-58.5 -111.5q65 67 166 67zM332 60q75 0 128.5 55t53.5 133q0 80 -50.5 134t-131.5 54
q-75 0 -128.5 -55t-53.5 -133t53.5 -133t128.5 -55z" />
    <glyph glyph-name="seven" unicode="7" horiz-adv-x="577" 
d="M80 645v70h417l-275 -714h-75l248 644h-315z" />
    <glyph glyph-name="eight" unicode="8" horiz-adv-x="637" 
d="M485 335q34 -30 52 -65q20 -40 20 -81q0 -47 -20 -87q-18 -38 -53 -65q-66 -51 -166 -51t-165 51q-35 27 -53 65q-20 40 -20 87q0 41 20 81q18 35 52 65q20 16 47 30q-21 11 -37 25q-30 24 -50 61q-18 36 -18 76q0 45 18 83q18 36 50 62q62 48 156 48q95 0 157 -48
q32 -26 50 -62q18 -38 18 -83q0 -40 -18 -76q-19 -36 -50 -61q-16 -14 -37 -25q27 -14 47 -30zM164 521q0 -53 45 -91t109 -38t109.5 38t45.5 91q0 66 -46.5 97.5t-108.5 31.5t-108 -32t-46 -97zM318 56q68 0 118.5 34.5t50.5 105.5q0 57 -49 98t-119 41h-1q-70 0 -119 -41
t-49 -98q0 -71 50.5 -105.5t117.5 -34.5z" />
    <glyph glyph-name="nine" unicode="9" horiz-adv-x="664" 
d="M332 710q102 0 178 -74q74 -74 74 -178q0 -242 -126 -365q-105 -102 -280 -102v60q42 0 82.5 9.5t85.5 32t82.5 69t59.5 111.5q-65 -67 -166 -67q-96 0 -169 68.5t-73 183.5q0 104 74 178t178 74zM332 270q75 0 128.5 55t53.5 133q0 77 -53.5 132.5t-128.5 55.5
q-76 0 -129 -55.5t-53 -132.5q0 -80 50.5 -134t131.5 -54z" />
    <glyph glyph-name="colon" unicode=":" horiz-adv-x="246" 
d="M123 88q18 0 30.5 -13t12.5 -31t-12.5 -30.5t-30.5 -12.5t-30.5 12.5t-12.5 30.5t12.5 31t30.5 13zM123 509q18 0 30.5 -13t12.5 -30q0 -18 -12.5 -31t-30.5 -13t-30.5 13t-12.5 31q0 17 12.5 30t30.5 13z" />
    <glyph glyph-name="semicolon" unicode=";" horiz-adv-x="247" 
d="M123 509q18 0 31 -13t13 -30q0 -18 -13 -31t-31 -13t-30.5 13t-12.5 31q0 17 12.5 30t30.5 13zM123 88q18 0 31 -13t13 -31q0 -38 -27.5 -73.5t-47.5 -44.5l-12 18q29 22 34 58q-14 3 -24 15t-10 27q0 18 12.5 31t30.5 13z" />
    <glyph glyph-name="less" unicode="&#x3c;" horiz-adv-x="447" 
d="M367 463l-201 -133l201 -134v-67l-287 201l287 200v-67z" />
    <glyph glyph-name="equal" unicode="=" horiz-adv-x="424" 
d="M80 347v45h264v-45h-264zM80 241v45h264v-45h-264z" />
    <glyph glyph-name="greater" unicode="&#x3e;" horiz-adv-x="448" 
d="M80 530l288 -200l-288 -201v67l201 134l-201 133v67z" />
    <glyph glyph-name="question" unicode="?" horiz-adv-x="531" 
d="M181 88q18 0 31 -13t13 -31t-13 -30.5t-31 -12.5t-30.5 12.5t-12.5 30.5t12.5 31t30.5 13zM397 662q54 -51 54 -127q0 -66 -41 -122q-19 -27 -83 -84q-38 -33 -56.5 -52t-36.5 -54t-18 -73h-70q0 76 45 140q26 36 90 92q34 30 51.5 47.5t33 46t15.5 59.5q0 49 -36 78.5
t-96 31.5h-5q-64 0 -122 -29l-42 -27v84q76 42 164 42h6q91 -2 147 -53z" />
    <glyph glyph-name="at" unicode="@" horiz-adv-x="865" 
d="M605 686q61 -21 104 -64q92 -90 72 -248q-11 -85 -50 -127q-39 -44 -97 -44q-36 0 -64.5 19.5t-39.5 51.5q-26 -37 -65 -59t-82 -22q-66 0 -106.5 49.5t-32.5 119.5q9 70 62 119.5t119 49.5q75 0 116 -62l7 56h55l-21 -167q-12 -110 58 -110q35 0 57.5 35t28.5 91
q17 133 -46.5 210.5t-210.5 77.5q-136 0 -225.5 -87.5t-105.5 -215.5v-2q-10 -82 15 -150.5t87.5 -111t153.5 -42.5h2q123 0 217 78l23 -30q-110 -93 -245 -93h-3q-68 0 -132 28q-59 26 -101 74q-43 49 -61 111q-20 66 -11 136v2q9 71 44 136q34 61 88 110q53 47 120 75
q67 27 139 27t131 -21zM398 238q47 0 85.5 36.5t44.5 87.5t-23 87.5t-76 36.5t-85 -36.5t-45 -87.5q-6 -51 23 -87.5t76 -36.5z" />
    <glyph glyph-name="A" unicode="A" horiz-adv-x="737" 
d="M40 1l329 713l328 -713h-77l-75 163h-352l-75 -163h-78zM225 234h288l-144 313z" />
    <glyph glyph-name="B" unicode="B" horiz-adv-x="730" 
d="M522 412q37 -17 65 -45q63 -61 63 -152q0 -90 -63 -151q-61 -63 -151 -63h-356v713h317q73 0 125 -52t52 -125t-52 -125zM150 644v-214h247q44 0 75.5 31.5t31.5 75.5t-31.5 75.5t-75.5 31.5h-247zM436 71q59 0 101.5 42.5t42.5 101.5q0 60 -42.5 102.5t-101.5 42.5h-286
v-289h286z" />
    <glyph glyph-name="C" unicode="C" horiz-adv-x="752" 
d="M444 652q-122 0 -208 -86t-86 -208t86 -208t208 -86q105 0 184 65l44 -55q-46 -37 -105 -59q-59 -21 -123 -21q-76 0 -142 28q-65 29 -116 78q-49 51 -78 116q-28 66 -28 142t28 141q29 67 78 116q51 51 116 78q69 29 142 29q66 0 123 -22q59 -20 105 -59l-44 -54
q-80 65 -184 65z" />
    <glyph glyph-name="D" unicode="D" horiz-adv-x="729" 
d="M545 610q48 -48 76 -113t28 -139t-28 -139q-27 -65 -76 -114q-51 -50 -114 -76q-65 -28 -138 -28h-213v713h213q73 0 138 -28q65 -27 114 -76zM293 71q118 0 202 84t84 203q0 118 -83.5 202t-202.5 84h-143v-573h143z" />
    <glyph glyph-name="E" unicode="E" horiz-adv-x="654" 
d="M150 365v-294h434l-15 -70h-489v713h479v-70h-409v-209h341v-70h-341z" />
    <glyph glyph-name="F" unicode="F" horiz-adv-x="619" 
d="M80 1v713h479v-70h-409v-209h351l-10 -70h-341v-364h-70z" />
    <glyph glyph-name="G" unicode="G" horiz-adv-x="766" 
d="M368 350l15 70h303v-355l-15 -11l-4 -2q-4 -3 -10.5 -6.5t-15.5 -8t-21 -9.5t-26 -10t-31 -9t-35 -7.5t-40 -5.5t-44 -2q-84 0 -152 28q-67 27 -116 79q-96 101 -96 257q0 155 96 256q47 51 116 79q70 29 152 29q66 0 123 -22q57 -19 106 -59l-44 -54q-82 65 -185 65
q-97 0 -165.5 -44t-98.5 -108.5t-30 -141.5q0 -57 18 -108.5t52.5 -93.5t92.5 -67t131 -25q74 0 137 24q6 2 35 15v247h-248z" />
    <glyph glyph-name="H" unicode="H" horiz-adv-x="729" 
d="M579 407v307h70v-713h-70v336h-429v-336h-70v713h70v-307h429z" />
    <glyph glyph-name="I" unicode="I" horiz-adv-x="230" 
d="M80 1v713h70v-713h-70z" />
    <glyph glyph-name="J" unicode="J" horiz-adv-x="576" 
d="M426 226v488h70v-488q0 -97 -69 -166t-167 -69q-70 0 -125 36q-55 34 -85 94l62 31q22 -42 61.5 -66.5t86.5 -24.5q69 0 117.5 48.5t48.5 116.5z" />
    <glyph glyph-name="K" unicode="K" horiz-adv-x="681" 
d="M599 714l-261 -276l303 -437h-85l-267 385l-139 -147v-238h-70v713h70v-374l353 374h96z" />
    <glyph glyph-name="L" unicode="L" horiz-adv-x="564" 
d="M150 714v-643h344l-10 -70h-404v713h70z" />
    <glyph glyph-name="M" unicode="M" horiz-adv-x="908" 
d="M454 290l339 431l35 -720h-70l-26 529l-278 -354l-278 354l-26 -529h-70l35 720z" />
    <glyph glyph-name="N" unicode="N" horiz-adv-x="730" 
d="M580 171v543h70v-724l-500 549v-538h-70v719z" />
    <glyph glyph-name="O" unicode="O" horiz-adv-x="888" 
d="M701 615q51 -49 78 -116q29 -67 29 -141q0 -73 -29 -142q-27 -65 -78 -116q-49 -49 -116 -78q-65 -28 -141 -28t-142 28q-65 29 -116 78q-49 51 -78 116q-28 66 -28 142t28 141q29 67 78 116q51 51 116 78q69 29 142 29q74 0 141 -29q67 -27 116 -78zM444 64
q122 0 208 86t86 208t-86 208t-208 86t-208 -86t-86 -208t86 -208t208 -86z" />
    <glyph glyph-name="P" unicode="P" horiz-adv-x="700" 
d="M376 714q100 0 173 -71q71 -71 71 -173t-71 -173q-74 -72 -173 -72h-226v-224h-70v713h296zM376 295q72 0 123 51.5t51 123.5t-51 123t-123 51h-226v-349h226z" />
    <glyph glyph-name="Q" unicode="Q" horiz-adv-x="889" 
d="M780 216q-26 -63 -78 -116q-18 -18 -34 -30l141 -178h-90l-111 140q-2 -1 -9.5 -4.5t-12.5 -5.5q-66 -28 -142 -28q-75 0 -141 28q-67 29 -116 78q-52 53 -78 116q-29 69 -29 142q0 74 29 141q26 64 78 116q49 51 116 78q69 29 141 29q73 0 142 -29q64 -26 116 -78
t78 -116q29 -67 29 -141q0 -73 -29 -142zM564 89l-179 225h89l150 -189q54 41 84.5 102t30.5 131q0 122 -86.5 208t-208.5 86t-208 -86t-86 -208t86 -208t208 -86q62 0 120 25z" />
    <glyph glyph-name="R" unicode="R" horiz-adv-x="697" 
d="M548 297q-49 -49 -113 -64l192 -232h-91l-186 224h-200v-224h-70v713h295q102 0 173 -71q72 -72 72 -173t-72 -173zM150 644v-349h225q73 0 124 51.5t51 123.5t-51 123t-124 51h-225z" />
    <glyph glyph-name="S" unicode="S" horiz-adv-x="668" 
d="M501 326q39 -28 62 -64q25 -42 25 -90q0 -86 -74 -136q-64 -45 -167 -45q-52 0 -98.5 13t-75 29.5t-52 37.5t-31 30.5t-10.5 15.5l59 37l5 -6q5 -7 17 -19t27 -22q65 -46 159 -46q81 0 127 32q44 30 44 79q0 56 -57 97q-44 31 -148 70q-108 43 -149 71q-36 25 -56 55
q-23 37 -23 80q0 86 72 130q63 39 174 39q59 0 120 -19.5t86 -33t35 -21.5l-19 -29l-20 -29q-4 4 -27.5 17t-74.5 29t-100 16q-91 0 -137 -28q-39 -26 -39 -71q0 -43 49 -78q37 -25 135 -63q115 -45 162 -78z" />
    <glyph glyph-name="T" unicode="T" horiz-adv-x="640" 
d="M60 644v70h520v-70h-225v-643h-70v643h-225z" />
    <glyph glyph-name="U" unicode="U" horiz-adv-x="729" 
d="M579 276v438h70v-438q0 -135 -84 -213q-39 -36 -92 -54q-49 -18 -109 -18q-58 0 -108 18q-53 18 -92 54q-84 78 -84 213v438h70v-438q0 -110 63 -162.5t151 -52.5q89 0 152 52.5t63 162.5z" />
    <glyph glyph-name="V" unicode="V" horiz-adv-x="737" 
d="M368 168l252 546h77l-329 -713l-328 713h77z" />
    <glyph glyph-name="W" unicode="W" horiz-adv-x="1086" 
d="M763 182l179 532h74l-246 -731l-227 548l-226 -548l-247 731h74l179 -532l220 532z" />
    <glyph glyph-name="X" unicode="X" horiz-adv-x="720" 
d="M631 714l-230 -350l239 -363h-84l-196 299l-197 -299h-83l238 363l-230 350h84l188 -286l188 286h83z" />
    <glyph glyph-name="Y" unicode="Y" horiz-adv-x="624" 
d="M500 714h84l-237 -360v-353h-70v353l-237 360h84l188 -286z" />
    <glyph glyph-name="Z" unicode="Z" horiz-adv-x="730" 
d="M642 714l-431 -643h439v-70h-570l431 643h-395v70h526z" />
    <glyph glyph-name="bracketleft" unicode="[" horiz-adv-x="296" 
d="M80 -25v739h136v-55h-81v-629h81v-55h-136z" />
    <glyph glyph-name="backslash" unicode="\" horiz-adv-x="340" 
d="M80 715h55l125 -714h-55z" />
    <glyph glyph-name="bracketright" unicode="]" horiz-adv-x="296" 
d="M80 659v55h136v-739h-136v55h81v629h-81z" />
    <glyph glyph-name="asciicircum" unicode="^" horiz-adv-x="450" 
d="M80 414l145 302l145 -302h-61l-84 185l-84 -185h-61z" />
    <glyph glyph-name="underscore" unicode="_" horiz-adv-x="471" 
d="M80 -42v45h311v-45h-311z" />
    <glyph glyph-name="grave" unicode="`" horiz-adv-x="368" 
d="M80 675l32 51l176 -121l-22 -35z" />
    <glyph glyph-name="a" unicode="a" 
d="M384 714q108 0 183 -75q75 -77 75 -183v-455h-70v60q-115 -75 -244 -75q-109 0 -177 63q-71 68 -71 183q0 53 19 97q19 45 57 75q73 59 205 59q100 0 211 -41v39q0 78 -55 133t-133 55q-22 0 -44 -1.5t-40.5 -3.5t-37 -5t-33.5 -6t-28 -6.5t-23 -6.5t-17 -5t-11 -3l-4 -2
l-26 60q13 5 38 13t92.5 19.5t133.5 11.5zM338 41q123 0 234 84v246q-100 37 -197 37q-99 0 -162 -45t-63 -131q0 -85 51.5 -138t136.5 -53z" />
    <glyph glyph-name="b" unicode="b" horiz-adv-x="730" 
d="M522 412q37 -17 65 -45q63 -63 63 -152q0 -88 -63 -151t-152 -63h-355v713h316q74 0 126 -52t52 -125t-52 -125zM150 644v-214h246q45 0 76.5 31.5t31.5 75.5t-31.5 75.5t-76.5 31.5h-246zM435 71q60 0 102.5 42.5t42.5 101.5q0 60 -42.5 102.5t-102.5 42.5h-285v-289
h285z" />
    <glyph glyph-name="c" unicode="c" horiz-adv-x="753" 
d="M444 652q-122 0 -208 -86t-86 -208t86 -208t208 -86q105 0 185 65l44 -55q-49 -38 -105 -59q-60 -21 -124 -21q-75 0 -141 28q-67 29 -116 78q-51 51 -78 116q-29 69 -29 142q0 74 29 141q27 67 78 116q49 51 116 78q69 29 141 29q65 0 124 -22q56 -19 105 -59l-44 -54
q-82 65 -185 65z" />
    <glyph glyph-name="d" unicode="d" horiz-adv-x="729" 
d="M545 610q48 -48 76 -113t28 -139t-28 -139q-27 -65 -76 -114q-51 -50 -114 -76q-65 -28 -138 -28h-213v713h213q73 0 138 -28q65 -27 114 -76zM293 71q118 0 202 84t84 203q0 118 -83.5 202t-202.5 84h-143v-573h143z" />
    <glyph glyph-name="e" unicode="e" horiz-adv-x="852" 
d="M772 376h-622v-18q0 -122 87 -209t209 -87q148 0 237 106l53 -45q-50 -62 -123 -96q-76 -35 -167 -35q-74 0 -143 29q-65 27 -116 78q-52 53 -78 116q-29 69 -29 143q0 156 96 258q47 49 115 79q68 28 152 28q71 0 131 -24q57 -22 102 -67q88 -86 94 -219zM443 653
q-227 0 -282 -217h536q-13 99 -83.5 158t-170.5 59z" />
    <glyph glyph-name="f" unicode="f" horiz-adv-x="546" 
d="M80 1v713h406v-70h-336v-209h277l-10 -70h-267v-364h-70z" />
    <glyph glyph-name="g" unicode="g" horiz-adv-x="721" 
d="M571 642v72h70v-478q0 -127 -95 -193q-75 -52 -187 -52q-70 0 -135.5 19.5t-87 32t-33.5 21.5l42 46q21 -15 57 -30q76 -29 157 -29q21 0 42 2.5t53.5 12.5t56.5 27.5t42 52t18 80.5v41q-82 -86 -210 -86q-63 0 -115 21q-51 21 -89 59q-77 77 -77 192t77 192q39 39 89 58
q52 21 115 21q122 0 210 -82zM361 241q50 0 90.5 13.5t64 35t36 38.5t19.5 33v205q-15 19 -37 38t-70 39.5t-103 20.5q-93 0 -152 -60.5t-59 -150.5t59 -151t152 -61z" />
    <glyph glyph-name="h" unicode="h" horiz-adv-x="729" 
d="M579 407v308h70v-714h-70v336h-429v-336h-70v714h70v-308h429z" />
    <glyph glyph-name="i" unicode="i" horiz-adv-x="230" 
d="M80 1v714h70v-714h-70z" />
    <glyph glyph-name="j" unicode="j" horiz-adv-x="576" 
d="M426 226v489h70v-489q0 -97 -69 -166q-67 -69 -166 -69q-67 0 -126 36q-56 36 -85 94l62 32q22 -43 61.5 -67.5t87.5 -24.5q68 0 116.5 48.5t48.5 116.5z" />
    <glyph glyph-name="k" unicode="k" horiz-adv-x="691" 
d="M554 109q35 -48 77 -48v-70q-42 0 -78 22q-30 19 -56 55q-27 37 -73 144q-36 87 -63 129.5t-64 52.5l-147 -155v-238h-70v714h70v-383l353 383h97l-252 -267q6 -3 7 -4q34 -21 59 -56q31 -44 75 -149q43 -100 65 -130z" />
    <glyph glyph-name="l" unicode="l" horiz-adv-x="525" 
d="M150 715v-644h305l-10 -70h-365v714h70z" />
    <glyph glyph-name="m" unicode="m" horiz-adv-x="1099" 
d="M800 725q92 0 155 -65q64 -64 64 -155v-504h-70v484q0 81 -44 127t-117 46q-40 0 -75 -16t-56.5 -36.5t-39 -47.5t-23.5 -41.5t-10 -26.5v-489h-70v484q0 81 -44 127t-117 46q-38 0 -71.5 -14t-54.5 -32.5t-38.5 -43.5t-25 -41t-13.5 -31v-495h-70v714h70v-102
q78 112 215 112q90 0 155 -65q32 -32 49 -75q77 140 231 140z" />
    <glyph glyph-name="n" unicode="n" 
d="M565 660q77 -71 77 -193v-466h-70v476q0 88 -50 138t-138 50q-47 0 -86.5 -13t-63.5 -30t-43.5 -40t-27.5 -37.5t-13 -27.5v-516h-70v714h70v-96q84 106 234 106q50 0 98 -16q50 -17 83 -49z" />
    <glyph glyph-name="o" unicode="o" horiz-adv-x="888" 
d="M701 615q50 -49 78 -115q29 -69 29 -142t-29 -142q-27 -65 -78 -116q-49 -49 -116 -78q-66 -28 -141 -28q-76 0 -142 28q-65 29 -116 78q-52 53 -78 116q-28 66 -28 142t28 142q27 64 78 115t116 78q69 29 142 29q72 0 141 -29q67 -27 116 -78zM444 64q122 0 208 86
t86 208t-86 208t-208 86t-208 -86t-86 -208t86 -208t208 -86z" />
    <glyph glyph-name="p" unicode="p" horiz-adv-x="699" 
d="M375 715q101 0 173 -72q71 -71 71 -173t-71 -173t-173 -71h-225v-225h-70v714h295zM375 296q72 0 123 51t51 123t-51 123.5t-123 51.5h-225v-349h225z" />
    <glyph glyph-name="q" unicode="q" horiz-adv-x="889" 
d="M780 216q-26 -63 -78 -116q-22 -20 -34 -30l141 -178h-90l-111 141l-22 -11q-66 -28 -141 -28q-76 0 -142 28q-64 28 -116 78q-52 53 -78 116q-29 69 -29 142t29 142q27 64 78 115q52 52 116 78q69 29 142 29q72 0 141 -29q67 -27 116 -78q51 -51 78 -115q29 -69 29 -142
t-29 -142zM564 89l-179 225h90l149 -189q54 41 84.5 102t30.5 131q0 122 -86.5 208t-207.5 86q-122 0 -208.5 -86t-86.5 -208t86.5 -208t208.5 -86q61 0 119 25z" />
    <glyph glyph-name="r" unicode="r" horiz-adv-x="730" 
d="M457 167q69 -96 193 -96v-70q-160 0 -252 127q-32 46 -49 98h-199v-225h-70v714h296q99 0 173 -72q71 -71 71 -173t-71 -173q-55 -54 -127 -67q14 -36 35 -63zM150 645v-349h226q72 0 123 51t51 123t-51 123.5t-123 51.5h-226z" />
    <glyph glyph-name="s" unicode="s" horiz-adv-x="668" 
d="M502 326q40 -28 61 -64q25 -42 25 -90q0 -87 -74 -136q-64 -45 -167 -45q-52 0 -98.5 13t-75 29.5t-52 37.5t-31 30.5t-10.5 15.5l60 37h-1l5 -6q5 -7 17 -18.5t27 -22.5q67 -46 159 -46q79 0 128 33q43 29 43 78q0 56 -57 97q-43 31 -147 70q-111 44 -150 71
q-37 25 -56 56q-23 35 -23 79q0 86 72 130q65 40 174 40q117 0 242 -75l-20 -29l-20 -29q-4 4 -27.5 17t-74.5 29.5t-100 16.5q-90 0 -137 -29q-39 -26 -39 -71q0 -44 49 -77q34 -24 135 -63q119 -48 163 -79z" />
    <glyph glyph-name="t" unicode="t" horiz-adv-x="640" 
d="M60 645v70h520v-70h-225v-644h-70v644h-225z" />
    <glyph glyph-name="u" unicode="u" 
d="M572 125v590h70v-714h-70v60q-117 -75 -245 -75q-108 0 -176 63q-71 68 -71 183v483h70v-483q0 -85 51 -138t136 -53q124 0 235 84z" />
    <glyph glyph-name="v" unicode="v" horiz-adv-x="737" 
d="M369 168l251 547h77l-328 -714l-329 714h77z" />
    <glyph glyph-name="w" unicode="w" horiz-adv-x="1086" 
d="M763 182l179 533h74l-246 -732l-227 548l-226 -548l-247 732h74l179 -533l220 532z" />
    <glyph glyph-name="x" unicode="x" horiz-adv-x="721" 
d="M632 715l-230 -351l239 -363h-84l-196 299l-197 -299h-84l239 363l-230 351h84l188 -287l188 287h83z" />
    <glyph glyph-name="y" unicode="y" horiz-adv-x="702" 
d="M552 381v334h70v-479q0 -127 -95 -193q-77 -52 -188 -52q-70 0 -135 19.5t-86.5 32t-33.5 21.5l42 46h-1l7 -4q6 -4 20.5 -11.5t30.5 -14.5q74 -29 156 -29q20 0 41.5 2.5t54.5 13t57 28t42 51.5t18 80v61q-84 -86 -211 -86q-61 0 -114 21q-51 21 -89 59q-78 78 -78 192
v242h70v-242q0 -90 59.5 -151t151.5 -61q50 0 90.5 13.5t64.5 35.5t36.5 38.5t19.5 32.5z" />
    <glyph glyph-name="z" unicode="z" horiz-adv-x="731" 
d="M643 715l-431 -644h439v-70h-571l431 644h-395v70h527z" />
    <glyph glyph-name="braceleft" unicode="{" horiz-adv-x="298" 
d="M217 671q-47 0 -68 -21q-9 -9 -9 -22q0 -39 36 -107q35 -70 35 -106q0 -42 -29 -65q29 -24 29 -66q0 -35 -35 -105q-36 -70 -36 -108q0 -13 9 -22q21 -21 68 -21l1 -55h-1q-70 0 -106 37q-26 24 -26 61q0 52 42 132q29 58 29 81q0 19 -13 26q-18 12 -63 12v55q41 0 63 12
q13 7 13 26q0 23 -29 81q-42 80 -42 132q0 36 26 62q36 36 106 36h1z" />
    <glyph glyph-name="bar" unicode="|" horiz-adv-x="215" 
d="M80 -106v896h55v-896h-55z" />
    <glyph glyph-name="braceright" unicode="}" horiz-adv-x="298" 
d="M142 415q0 -19 13 -26q22 -12 63 -12v-55q-45 0 -63 -12q-13 -7 -13 -26q0 -23 29 -81q42 -80 42 -132q0 -37 -26 -61q-36 -37 -106 -37h-1l1 55q47 0 68 21q9 9 9 22q0 38 -36 108q-35 70 -35 105q0 42 29 66q-29 23 -29 65q0 36 35 106q36 68 36 107q0 13 -9 22
q-21 21 -68 21l-1 55h1q70 0 106 -36q26 -26 26 -62q0 -52 -42 -132q-29 -58 -29 -81z" />
    <glyph glyph-name="asciitilde" unicode="~" horiz-adv-x="469" 
d="M299 421q35 0 64 -27q26 -28 26 -69h-55q0 19 -10.5 30t-24.5 11q-19 0 -45 -17q-41 -27 -78 -27q-44 0 -71 32q-25 30 -25 65h55q0 -15 11 -28.5t30 -13.5t48 18q40 26 75 26z" />
    <glyph glyph-name="exclamdown" unicode="&#xa1;" horiz-adv-x="246" 
d="M101 468h45l12 -567h-70zM123 528q-18 0 -30.5 13t-12.5 31t12.5 30.5t30.5 12.5t30.5 -12.5t12.5 -30.5t-12.5 -31t-30.5 -13z" />
    <glyph glyph-name="cent" unicode="&#xa2;" horiz-adv-x="568" 
d="M449 480q-49 49 -122 54v-368q71 3 122 53l39 -39q-66 -66 -161 -69v-110h-55v114q-71 14 -122 65q-70 70 -70 170q0 101 70 169q51 51 122 65v131h55v-126q96 -5 161 -70zM135 350q0 -64 38.5 -113.5t98.5 -65.5v357q-60 -16 -98.5 -65.5t-38.5 -112.5z" />
    <glyph glyph-name="sterling" unicode="&#xa3;" horiz-adv-x="688" 
d="M559 100l49 -24q-20 -31 -38 -45q-49 -41 -120 -41q-47 0 -147 27q-119 33 -167 21l-22 -5l-20 43l16 13q50 43 70.5 91t18.5 84t-15 91h-104v45h92q-17 68 -17 112q0 82 56 143t160 61q35 0 68 -10.5t56 -25t42 -31t27 -26t10 -12.5l-44 -33q0 1 -5 6.5t-16 16t-24 19.5
q-55 41 -114 41q-78 0 -119.5 -44t-41.5 -105q0 -38 19 -112h310v-45h-299q17 -71 11 -127q-8 -71 -58 -132q36 -3 125 -26q88 -25 132 -25q22 0 41.5 5.5t31 13t20.5 16.5t12 13t4 7z" />
    <glyph glyph-name="currency" unicode="&#xa4;" horiz-adv-x="569" 
d="M455 340q0 -54 -32 -99l66 -67l-39 -39l-66 67q-46 -32 -99 -32q-54 0 -100 32l-66 -67l-39 39l66 67q-32 45 -32 99q0 53 32 99l-66 67l39 39l66 -67q44 32 100 32q55 0 99 -32l66 67l39 -39l-66 -67q32 -46 32 -99zM203 259q34 -34 81.5 -34t81.5 34q34 32 34 81
q0 47 -34 81t-81 34q-48 0 -82 -34t-34 -81q0 -49 34 -81z" />
    <glyph glyph-name="yen" unicode="&#xa5;" horiz-adv-x="703" 
d="M623 715l-236 -361v-49h149v-45h-149v-61h149v-45h-149v-153h-70v153h-149v45h149v61h-149v45h149v49l-237 361h84l188 -287l188 287h83z" />
    <glyph glyph-name="section" unicode="&#xa7;" horiz-adv-x="576" 
d="M457 147q-18 -18 -37 -29q4 -3 10 -7q66 -51 66 -127q0 -71 -55 -118q-55 -44 -139 -44q-47 0 -87.5 11.5t-63 25.5t-41 32.5t-23 26t-7.5 13.5l50 23q10 -19 35 -38q52 -39 137 -39q62 0 100.5 29.5t38.5 77.5q0 49 -36.5 77t-121.5 63q-36 14 -56.5 23.5t-48 25.5
t-45 36t-26.5 45q-21 58 11 112q26 41 73 60q-28 16 -40 25q-65 47 -65 119q0 71 58 111q51 36 139 36q110 0 199 -67l-18 -21l-17 -22q-4 4 -21.5 15t-59 25.5t-83.5 14.5q-21 0 -41 -3t-45 -11.5t-40.5 -28.5t-15.5 -49q0 -43 34.5 -69t112.5 -57h3v-1q1 0 5 -2
q96 -38 131 -64q34 -26 49 -54q20 -35 20 -77q0 -57 -39 -99zM359 151q38 10 60 35.5t22 59.5q0 53 -47 87q-35 25 -115 56q-33 -2 -58 -10q-39 -12 -55 -42q-20 -32 -7 -64q8 -22 32.5 -41.5t46.5 -29.5t65 -27q38 -16 56 -24z" />
    <glyph glyph-name="dieresis" unicode="&#xa8;" horiz-adv-x="441" 
d="M129 656q19 0 33.5 -14t14.5 -34t-14 -34.5t-34 -14.5t-34.5 14.5t-14.5 34.5t14.5 34t34.5 14zM312 656q20 0 34.5 -14t14.5 -34t-14.5 -34.5t-34.5 -14.5t-34 14.5t-14 34.5t14 34t34 14z" />
    <glyph glyph-name="copyright" unicode="&#xa9;" horiz-adv-x="666" 
d="M342 564q-43 0 -73.5 -30t-30.5 -73t30 -73.5t74 -30.5q36 0 64 22l28 -35q-41 -32 -92 -32q-62 0 -105.5 44t-43.5 105t43.5 104.5t105.5 43.5q51 0 92 -32l-28 -35q-26 22 -64 22zM333 714q103 0 179 -74q74 -76 74 -179t-74 -179q-74 -74 -179 -74t-179 74t-74 179
t74 179q76 74 179 74zM333 253q86 0 147 61t61 147q0 85 -61.5 146.5t-146.5 61.5q-86 0 -147 -61t-61 -147t61 -147t147 -61z" />
    <glyph glyph-name="registered" unicode="&#xae;" horiz-adv-x="666" 
d="M333 714q103 0 179 -74q74 -74 74 -179t-74 -179t-179 -74t-179 74t-74 179t74 179q76 74 179 74zM333 253q86 0 147 61t61 147t-61 147t-147 61t-147 -61t-61 -147t61 -147t147 -61zM366 411q28 -49 80 -49v-45q-68 0 -107 53q-14 18 -21 36h-47v-87h-45v291h108
q42 0 72 -30t30 -72q0 -33 -19.5 -59.5t-50.5 -37.5zM271 565v-114h63q23 0 40 17t17 40q0 24 -17 40.5t-40 16.5h-63z" />
    <glyph glyph-name="acute" unicode="&#xb4;" horiz-adv-x="367" 
d="M287 675l-186 -105l-21 35l176 121z" />
    <glyph glyph-name="cedilla" unicode="&#xb8;" horiz-adv-x="340" 
d="M140 -50q63 -6 91.5 -32t28.5 -61q0 -41 -43.5 -70t-136.5 -24v44q70 0 102 17q23 12 23 33q0 16 -15 25q-24 15 -68 15h-27v139h45v-86z" />
    <glyph glyph-name="onequarter" unicode="&#xbc;" horiz-adv-x="677" 
d="M451 715h45l-319 -714h-45zM160 304h-40v370h-40v41h80v-411zM564 412v-277h33v-35h-33v-99h-40v99h-229l223 312h46zM524 135v216l-156 -216h156z" />
    <glyph glyph-name="onehalf" unicode="&#xbd;" horiz-adv-x="738" 
d="M451 715h45l-319 -714h-45zM160 304h-40v370h-40v41h80v-411zM618 234l-149 -192h189v-41h-272l200 258q31 41 12 81q-19 41 -73 41h-3q-39 0 -71 -17l-25 -15l-27 30q5 5 16 13t42.5 19t64.5 11h3q37 0 68 -18q30 -20 42 -46q29 -65 -17 -124z" />
    <glyph glyph-name="threequarters" unicode="&#xbe;" horiz-adv-x="839" 
d="M594 715h45l-319 -714h-45zM726 412v-277h33v-35h-33v-99h-41v99h-228l222 312h47zM685 135v216l-155 -216h155zM378 426q0 -61 -46 -104q-44 -39 -108 -39q-50 0 -89 27q-40 28 -55 71l39 14q11 -31 40.5 -51t64.5 -20q48 0 80 29t32 73q0 46 -29.5 74t-78.5 29l-62 -2
l116 146h-169v42h256l-116 -146q21 -3 37 -10q26 -10 47 -31q41 -41 41 -102z" />
    <glyph glyph-name="questiondown" unicode="&#xbf;" horiz-adv-x="531" 
d="M350 528q-18 0 -31 13t-13 31t13 30.5t31 12.5t30.5 -12.5t12.5 -30.5t-12.5 -31t-30.5 -13zM134 -46q-54 51 -54 127q0 66 41 122q19 27 83 84q38 33 56.5 52t36.5 54t18 73h70q0 -76 -45 -140q-26 -36 -90 -92q-34 -30 -51.5 -47.5t-33 -46t-15.5 -59.5q0 -49 36 -78.5
t96 -31.5h5q64 0 122 29l42 27v-84q-76 -42 -164 -42h-6q-91 2 -147 53z" />
    <glyph glyph-name="Agrave" unicode="&#xc0;" horiz-adv-x="737" 
d="M40 1l329 713l328 -713h-77l-75 163h-352l-75 -163h-78zM225 234h288l-144 313zM248 875l32 51l176 -121l-22 -35z" />
    <glyph glyph-name="Aacute" unicode="&#xc1;" horiz-adv-x="737" 
d="M40 1l329 713l328 -713h-77l-75 163h-352l-75 -163h-78zM225 234h288l-144 313zM507 875l-186 -105l-21 35l176 121z" />
    <glyph glyph-name="Acircumflex" unicode="&#xc2;" horiz-adv-x="737" 
d="M40 1l329 713l328 -713h-77l-75 163h-352l-75 -163h-78zM225 234h288l-144 313zM208 811l160 155l160 -155l-41 -43l-119 124l-118 -124z" />
    <glyph glyph-name="Atilde" unicode="&#xc3;" horiz-adv-x="737" 
d="M40 1l329 713l328 -713h-77l-75 163h-352l-75 -163h-78zM225 234h288l-144 313zM433 870q36 0 64 -28q26 -28 26 -68h-55q0 18 -10.5 29.5t-24.5 11.5q-20 0 -45 -17q-41 -27 -78 -27q-43 0 -71 31q-25 30 -25 66h55q0 -16 11 -29t30 -13q21 0 48 17q38 27 75 27z" />
    <glyph glyph-name="Adieresis" unicode="&#xc4;" horiz-adv-x="737" 
d="M40 1l329 713l328 -713h-77l-75 163h-352l-75 -163h-78zM225 234h288l-144 313zM277 856q19 0 33.5 -14t14.5 -34t-14 -34.5t-34 -14.5t-34.5 14.5t-14.5 34.5t14.5 34t34.5 14zM460 856q20 0 34.5 -14t14.5 -34t-14.5 -34.5t-34.5 -14.5t-34 14.5t-14 34.5t14 34t34 14z
" />
    <glyph glyph-name="Aring" unicode="&#xc5;" horiz-adv-x="737" 
d="M40 1l329 713l328 -713h-77l-75 163h-352l-75 -163h-78zM225 234h288l-144 313zM369 978q45 0 77 -32t32 -77q0 -46 -32 -78t-77 -32q-46 0 -78 32t-32 78q0 45 32 77t78 32zM369 812q23 0 39.5 16.5t16.5 40.5q0 23 -16.5 40t-39.5 17q-24 0 -40.5 -17t-16.5 -40
q0 -24 16.5 -40.5t40.5 -16.5z" />
    <glyph glyph-name="AE" unicode="&#xc6;" horiz-adv-x="1115" 
d="M626 365v-294h419v-70h-489v201h-294l-137 -201h-85l489 714h506v-70h-409v-210h341v-70h-341zM310 272h246v358z" />
    <glyph glyph-name="Ccedilla" unicode="&#xc7;" horiz-adv-x="752" 
d="M444 652q-122 0 -208 -86t-86 -208t86 -208t208 -86q105 0 184 65l44 -55q-46 -37 -105 -59q-59 -21 -123 -21q-76 0 -142 28q-65 29 -116 78q-49 51 -78 116q-28 66 -28 142t28 141q29 67 78 116q51 51 116 78q69 29 142 29q66 0 123 -22q59 -20 105 -59l-44 -54
q-80 65 -184 65zM412 -50q63 -6 91.5 -32t28.5 -61q0 -41 -43.5 -70t-136.5 -24v44q70 0 102 17q23 12 23 33q0 16 -15 25q-24 15 -68 15h-27v139h45v-86z" />
    <glyph glyph-name="Egrave" unicode="&#xc8;" horiz-adv-x="654" 
d="M150 365v-294h434l-15 -70h-489v713h479v-70h-409v-209h341v-70h-341zM223 875l32 51l176 -121l-22 -35z" />
    <glyph glyph-name="Eacute" unicode="&#xc9;" horiz-adv-x="654" 
d="M150 365v-294h434l-15 -70h-489v713h479v-70h-409v-209h341v-70h-341zM430 875l-186 -105l-21 35l176 121z" />
    <glyph glyph-name="Ecircumflex" unicode="&#xca;" horiz-adv-x="654" 
d="M150 365v-294h434l-15 -70h-489v713h479v-70h-409v-209h341v-70h-341zM167 811l160 155l160 -155l-41 -43l-119 124l-118 -124z" />
    <glyph glyph-name="Edieresis" unicode="&#xcb;" horiz-adv-x="654" 
d="M150 365v-294h434l-15 -70h-489v713h479v-70h-409v-209h341v-70h-341zM235 856q19 0 33.5 -14t14.5 -34t-14 -34.5t-34 -14.5t-34.5 14.5t-14.5 34.5t14.5 34t34.5 14zM418 856q20 0 34.5 -14t14.5 -34t-14.5 -34.5t-34.5 -14.5t-34 14.5t-14 34.5t14 34t34 14z" />
    <glyph glyph-name="Igrave" unicode="&#xcc;" horiz-adv-x="230" 
d="M80 1v713h70v-713h-70zM-29 875l32 51l176 -121l-22 -35z" />
    <glyph glyph-name="Iacute" unicode="&#xcd;" horiz-adv-x="230" 
d="M80 1v713h70v-713h-70zM259 875l-186 -105l-21 35l176 121z" />
    <glyph glyph-name="Icircumflex" unicode="&#xce;" horiz-adv-x="230" 
d="M80 1v713h70v-713h-70zM-45 811l160 155l160 -155l-41 -43l-119 124l-118 -124z" />
    <glyph glyph-name="Idieresis" unicode="&#xcf;" horiz-adv-x="230" 
d="M80 1v713h70v-713h-70zM24 856q20 0 34 -14t14 -34t-14 -34.5t-34 -14.5t-34.5 14.5t-14.5 34.5t14.5 34t34.5 14zM207 856q20 0 34.5 -14t14.5 -34t-14.5 -34.5t-34.5 -14.5t-34 14.5t-14 34.5t14.5 34t33.5 14z" />
    <glyph glyph-name="Eth" unicode="&#xd0;" horiz-adv-x="729" 
d="M545 610q48 -48 76 -113t28 -139t-28 -139q-27 -65 -76 -114q-51 -50 -114 -76q-65 -28 -138 -28h-213v713h213q73 0 138 -28q65 -27 114 -76zM293 71q118 0 202 84t84 203q0 118 -83.5 202t-202.5 84h-143v-573h143zM17 382v55h217v-55h-217z" />
    <glyph glyph-name="Ntilde" unicode="&#xd1;" horiz-adv-x="730" 
d="M580 171v543h70v-724l-500 549v-538h-70v719zM429 870q36 0 64 -28q26 -28 26 -68h-55q0 18 -10.5 29.5t-24.5 11.5q-19 0 -45 -17q-40 -27 -78 -27q-43 0 -71 31q-25 30 -25 66h55q0 -16 11 -29t30 -13q21 0 48 17q38 27 75 27z" />
    <glyph glyph-name="Ograve" unicode="&#xd2;" horiz-adv-x="888" 
d="M701 615q51 -49 78 -116q29 -67 29 -141q0 -73 -29 -142q-27 -65 -78 -116q-49 -49 -116 -78q-65 -28 -141 -28t-142 28q-65 29 -116 78q-49 51 -78 116q-28 66 -28 142t28 141q29 67 78 116q51 51 116 78q69 29 142 29q74 0 141 -29q67 -27 116 -78zM444 64
q122 0 208 86t86 208t-86 208t-208 86t-208 -86t-86 -208t86 -208t208 -86zM340 875l32 51l176 -121l-22 -35z" />
    <glyph glyph-name="Oacute" unicode="&#xd3;" horiz-adv-x="888" 
d="M701 615q51 -49 78 -116q29 -67 29 -141q0 -73 -29 -142q-27 -65 -78 -116q-49 -49 -116 -78q-65 -28 -141 -28t-142 28q-65 29 -116 78q-49 51 -78 116q-28 66 -28 142t28 141q29 67 78 116q51 51 116 78q69 29 142 29q74 0 141 -29q67 -27 116 -78zM444 64
q122 0 208 86t86 208t-86 208t-208 86t-208 -86t-86 -208t86 -208t208 -86zM547 875l-186 -105l-21 35l176 121z" />
    <glyph glyph-name="Ocircumflex" unicode="&#xd4;" horiz-adv-x="888" 
d="M701 615q51 -49 78 -116q29 -67 29 -141q0 -73 -29 -142q-27 -65 -78 -116q-49 -49 -116 -78q-65 -28 -141 -28t-142 28q-65 29 -116 78q-49 51 -78 116q-28 66 -28 142t28 141q29 67 78 116q51 51 116 78q69 29 142 29q74 0 141 -29q67 -27 116 -78zM444 64
q122 0 208 86t86 208t-86 208t-208 86t-208 -86t-86 -208t86 -208t208 -86zM284 811l160 155l160 -155l-41 -43l-119 124l-118 -124z" />
    <glyph glyph-name="Otilde" unicode="&#xd5;" horiz-adv-x="888" 
d="M701 615q51 -49 78 -116q29 -67 29 -141q0 -73 -29 -142q-27 -65 -78 -116q-49 -49 -116 -78q-65 -28 -141 -28t-142 28q-65 29 -116 78q-49 51 -78 116q-28 66 -28 142t28 141q29 67 78 116q51 51 116 78q69 29 142 29q74 0 141 -29q67 -27 116 -78zM444 64
q122 0 208 86t86 208t-86 208t-208 86t-208 -86t-86 -208t86 -208t208 -86zM508 870q36 0 64 -28q26 -28 26 -68h-55q0 18 -10.5 29.5t-24.5 11.5q-20 0 -45 -17q-41 -27 -78 -27q-43 0 -71 31q-25 30 -25 66h55q0 -16 11 -29t30 -13q21 0 48 17q38 27 75 27z" />
    <glyph glyph-name="Odieresis" unicode="&#xd6;" horiz-adv-x="888" 
d="M701 615q51 -49 78 -116q29 -67 29 -141q0 -73 -29 -142q-27 -65 -78 -116q-49 -49 -116 -78q-65 -28 -141 -28t-142 28q-65 29 -116 78q-49 51 -78 116q-28 66 -28 142t28 141q29 67 78 116q51 51 116 78q69 29 142 29q74 0 141 -29q67 -27 116 -78zM444 64
q122 0 208 86t86 208t-86 208t-208 86t-208 -86t-86 -208t86 -208t208 -86zM352 856q20 0 34 -14t14 -34t-14 -34.5t-34 -14.5t-34.5 14.5t-14.5 34.5t14.5 34t34.5 14zM535 856q20 0 34.5 -14t14.5 -34t-14.5 -34.5t-34.5 -14.5t-34 14.5t-14 34.5t14.5 34t33.5 14z" />
    <glyph glyph-name="multiply" unicode="&#xd7;" horiz-adv-x="434" 
d="M315 487l39 -39l-98 -98l98 -99l-39 -38l-98 98l-98 -98l-39 38l98 99l-98 98l39 39l98 -99z" />
    <glyph glyph-name="Oslash" unicode="&#xd8;" horiz-adv-x="889" 
d="M702 615q51 -51 78 -115q29 -69 29 -142t-29 -142q-26 -63 -78 -116q-52 -50 -116 -78q-66 -28 -142 -28q-62 0 -118 19l-53 -119h-55l62 139q-52 26 -93 67q-52 53 -78 116q-29 69 -29 142t29 142q27 64 78 115q49 51 116 78q69 29 141 29q68 0 131 -24l41 92h55
l-50 -113q49 -29 81 -62zM150 358q0 -83 43.5 -153.5t114.5 -107.5l238 537q-51 18 -102 18q-122 0 -208 -86t-86 -208zM444 64q122 0 208.5 86t86.5 208q0 80 -40 147.5t-107 106.5l-237 -534q44 -14 89 -14z" />
    <glyph glyph-name="Ugrave" unicode="&#xd9;" horiz-adv-x="729" 
d="M579 276v438h70v-438q0 -135 -84 -213q-39 -36 -92 -54q-49 -18 -109 -18q-58 0 -108 18q-53 18 -92 54q-84 78 -84 213v438h70v-438q0 -110 63 -162.5t151 -52.5q89 0 152 52.5t63 162.5zM260 875l32 51l176 -121l-22 -35z" />
    <glyph glyph-name="Uacute" unicode="&#xda;" horiz-adv-x="729" 
d="M579 276v438h70v-438q0 -135 -84 -213q-39 -36 -92 -54q-49 -18 -109 -18q-58 0 -108 18q-53 18 -92 54q-84 78 -84 213v438h70v-438q0 -110 63 -162.5t151 -52.5q89 0 152 52.5t63 162.5zM468 875l-186 -105l-21 35l176 121z" />
    <glyph glyph-name="Ucircumflex" unicode="&#xdb;" horiz-adv-x="729" 
d="M579 276v438h70v-438q0 -135 -84 -213q-39 -36 -92 -54q-49 -18 -109 -18q-58 0 -108 18q-53 18 -92 54q-84 78 -84 213v438h70v-438q0 -110 63 -162.5t151 -52.5q89 0 152 52.5t63 162.5zM204 811l160 155l160 -155l-41 -43l-119 124l-118 -124z" />
    <glyph glyph-name="Udieresis" unicode="&#xdc;" horiz-adv-x="729" 
d="M579 276v438h70v-438q0 -135 -84 -213q-39 -36 -92 -54q-49 -18 -109 -18q-58 0 -108 18q-53 18 -92 54q-84 78 -84 213v438h70v-438q0 -110 63 -162.5t151 -52.5q89 0 152 52.5t63 162.5zM273 856q19 0 33.5 -14t14.5 -34t-14 -34.5t-34 -14.5t-34.5 14.5t-14.5 34.5
t14.5 34t34.5 14zM456 856q20 0 34.5 -14t14.5 -34t-14.5 -34.5t-34.5 -14.5t-34 14.5t-14 34.5t14 34t34 14z" />
    <glyph glyph-name="Yacute" unicode="&#xdd;" horiz-adv-x="624" 
d="M500 714h84l-237 -360v-353h-70v353l-237 360h84l188 -286zM415 875l-186 -105l-21 35l176 121z" />
    <glyph glyph-name="Thorn" unicode="&#xde;" horiz-adv-x="700" 
d="M375 602q102 0 173 -71q72 -72 72 -173t-72 -173t-173 -72h-225v-112h-70v714h70v-113h225zM375 183q72 0 123.5 51.5t51.5 123.5t-51.5 123t-123.5 51h-225v-349h225z" />
    <glyph glyph-name="germandbls" unicode="&#xdf;" horiz-adv-x="730" 
d="M515 407q60 -24 97.5 -77t37.5 -119q0 -87 -61.5 -148.5t-148.5 -61.5h-210v70h210q58 0 99 41t41 99t-41 98.5t-99 40.5h-210v70h151q47 0 81.5 33.5t34.5 78.5q0 47 -33 80t-79 33h-81q-64 0 -109 -45t-45 -109v-537h-70v537q0 92 66 158t158 66h81q75 0 128.5 -53.5
t53.5 -129.5q0 -71 -52 -125z" />
    <glyph glyph-name="agrave" unicode="&#xe0;" 
d="M384 714q108 0 183 -75q75 -77 75 -183v-455h-70v60q-115 -75 -244 -75q-109 0 -177 63q-71 68 -71 183q0 53 19 97q19 45 57 75q73 59 205 59q100 0 211 -41v39q0 78 -55 133t-133 55q-22 0 -44 -1.5t-40.5 -3.5t-37 -5t-33.5 -6t-28 -6.5t-23 -6.5t-17 -5t-11 -3l-4 -2
l-26 60q13 5 38 13t92.5 19.5t133.5 11.5zM338 41q123 0 234 84v246q-100 37 -197 37q-99 0 -162 -45t-63 -131q0 -85 51.5 -138t136.5 -53zM257 875l32 51l176 -121l-22 -35z" />
    <glyph glyph-name="aacute" unicode="&#xe1;" 
d="M384 714q108 0 183 -75q75 -77 75 -183v-455h-70v60q-115 -75 -244 -75q-109 0 -177 63q-71 68 -71 183q0 53 19 97q19 45 57 75q73 59 205 59q100 0 211 -41v39q0 78 -55 133t-133 55q-22 0 -44 -1.5t-40.5 -3.5t-37 -5t-33.5 -6t-28 -6.5t-23 -6.5t-17 -5t-11 -3l-4 -2
l-26 60q13 5 38 13t92.5 19.5t133.5 11.5zM338 41q123 0 234 84v246q-100 37 -197 37q-99 0 -162 -45t-63 -131q0 -85 51.5 -138t136.5 -53zM464 875l-186 -105l-21 35l176 121z" />
    <glyph glyph-name="acircumflex" unicode="&#xe2;" 
d="M384 714q108 0 183 -75q75 -77 75 -183v-455h-70v60q-115 -75 -244 -75q-109 0 -177 63q-71 68 -71 183q0 53 19 97q19 45 57 75q73 59 205 59q100 0 211 -41v39q0 78 -55 133t-133 55q-22 0 -44 -1.5t-40.5 -3.5t-37 -5t-33.5 -6t-28 -6.5t-23 -6.5t-17 -5t-11 -3l-4 -2
l-26 60q13 5 38 13t92.5 19.5t133.5 11.5zM338 41q123 0 234 84v246q-100 37 -197 37q-99 0 -162 -45t-63 -131q0 -85 51.5 -138t136.5 -53zM201 811l160 155l160 -155l-41 -43l-119 124l-118 -124z" />
    <glyph glyph-name="atilde" unicode="&#xe3;" 
d="M384 714q108 0 183 -75q75 -77 75 -183v-455h-70v60q-115 -75 -244 -75q-109 0 -177 63q-71 68 -71 183q0 53 19 97q19 45 57 75q73 59 205 59q100 0 211 -41v39q0 78 -55 133t-133 55q-22 0 -44 -1.5t-40.5 -3.5t-37 -5t-33.5 -6t-28 -6.5t-23 -6.5t-17 -5t-11 -3l-4 -2
l-26 60q13 5 38 13t92.5 19.5t133.5 11.5zM338 41q123 0 234 84v246q-100 37 -197 37q-99 0 -162 -45t-63 -131q0 -85 51.5 -138t136.5 -53zM425 870q36 0 64 -28q26 -28 26 -68h-55q0 18 -10.5 29.5t-24.5 11.5q-19 0 -45 -17q-41 -27 -78 -27q-43 0 -71 31q-25 30 -25 66
h55q0 -16 11 -29t30 -13q21 0 48 17q38 27 75 27z" />
    <glyph glyph-name="adieresis" unicode="&#xe4;" 
d="M384 714q108 0 183 -75q75 -77 75 -183v-455h-70v60q-115 -75 -244 -75q-109 0 -177 63q-71 68 -71 183q0 53 19 97q19 45 57 75q73 59 205 59q100 0 211 -41v39q0 78 -55 133t-133 55q-22 0 -44 -1.5t-40.5 -3.5t-37 -5t-33.5 -6t-28 -6.5t-23 -6.5t-17 -5t-11 -3l-4 -2
l-26 60q13 5 38 13t92.5 19.5t133.5 11.5zM338 41q123 0 234 84v246q-100 37 -197 37q-99 0 -162 -45t-63 -131q0 -85 51.5 -138t136.5 -53zM269 856q19 0 33.5 -14t14.5 -34t-14 -34.5t-34 -14.5t-34.5 14.5t-14.5 34.5t14.5 34t34.5 14zM452 856q20 0 34.5 -14t14.5 -34
t-14.5 -34.5t-34.5 -14.5t-34 14.5t-14 34.5t14 34t34 14z" />
    <glyph glyph-name="aring" unicode="&#xe5;" 
d="M384 714q108 0 183 -75q75 -77 75 -183v-455h-70v60q-115 -75 -244 -75q-109 0 -177 63q-71 68 -71 183q0 53 19 97q19 45 57 75q73 59 205 59q100 0 211 -41v39q0 78 -55 133t-133 55q-22 0 -44 -1.5t-40.5 -3.5t-37 -5t-33.5 -6t-28 -6.5t-23 -6.5t-17 -5t-11 -3l-4 -2
l-26 60q13 5 38 13t92.5 19.5t133.5 11.5zM338 41q123 0 234 84v246q-100 37 -197 37q-99 0 -162 -45t-63 -131q0 -85 51.5 -138t136.5 -53zM361 978q45 0 77 -32t32 -77q0 -46 -32 -78t-77 -32q-46 0 -78 32t-32 78q0 45 32 77t78 32zM361 812q23 0 39.5 16.5t16.5 40.5
q0 23 -16.5 40t-39.5 17q-24 0 -40.5 -17t-16.5 -40q0 -24 16.5 -40.5t40.5 -16.5z" />
    <glyph glyph-name="ae" unicode="&#xe6;" horiz-adv-x="1346" 
d="M384 714q108 0 183 -75q75 -77 75 -183v-455h-70v60q-115 -75 -244 -75q-109 0 -177 63q-71 68 -71 183q0 53 19 97q19 45 57 75q73 59 205 59q100 0 211 -41v39q0 78 -55 133t-133 55q-22 0 -44 -1.5t-40.5 -3.5t-37 -5t-33.5 -6t-28 -6.5t-23 -6.5t-17 -5t-11 -3l-4 -2
l-26 60q13 5 38 13t92.5 19.5t133.5 11.5zM338 41q123 0 234 84v246q-100 37 -197 37q-99 0 -162 -45t-63 -131q0 -85 51.5 -138t136.5 -53zM1266 376h-622v-18q0 -122 87 -209t209 -87q148 0 237 106l53 -45q-50 -62 -123 -96q-76 -35 -167 -35q-74 0 -143 29
q-65 27 -116 78q-52 53 -78 116q-29 69 -29 143q0 156 96 258q47 49 115 79q68 28 152 28q71 0 131 -24q57 -22 102 -67q88 -86 94 -219zM937 653q-227 0 -282 -217h536q-13 99 -83.5 158t-170.5 59z" />
    <glyph glyph-name="ccedilla" unicode="&#xe7;" horiz-adv-x="753" 
d="M444 652q-122 0 -208 -86t-86 -208t86 -208t208 -86q105 0 185 65l44 -55q-49 -38 -105 -59q-60 -21 -124 -21q-75 0 -141 28q-67 29 -116 78q-51 51 -78 116q-29 69 -29 142q0 74 29 141q27 67 78 116q49 51 116 78q69 29 141 29q65 0 124 -22q56 -19 105 -59l-44 -54
q-82 65 -185 65zM396 -50q63 -6 91.5 -32t28.5 -61q0 -41 -43.5 -70t-136.5 -24v44q70 0 102 17q23 12 23 33q0 16 -15 25q-24 15 -68 15h-27v139h45v-86z" />
    <glyph glyph-name="egrave" unicode="&#xe8;" horiz-adv-x="852" 
d="M772 376h-622v-18q0 -122 87 -209t209 -87q148 0 237 106l53 -45q-50 -62 -123 -96q-76 -35 -167 -35q-74 0 -143 29q-65 27 -116 78q-52 53 -78 116q-29 69 -29 143q0 156 96 258q47 49 115 79q68 28 152 28q71 0 131 -24q57 -22 102 -67q88 -86 94 -219zM443 653
q-227 0 -282 -217h536q-13 99 -83.5 158t-170.5 59zM322 875l32 51l176 -121l-22 -35z" />
    <glyph glyph-name="eacute" unicode="&#xe9;" horiz-adv-x="852" 
d="M772 376h-622v-18q0 -122 87 -209t209 -87q148 0 237 106l53 -45q-50 -62 -123 -96q-76 -35 -167 -35q-74 0 -143 29q-65 27 -116 78q-52 53 -78 116q-29 69 -29 143q0 156 96 258q47 49 115 79q68 28 152 28q71 0 131 -24q57 -22 102 -67q88 -86 94 -219zM443 653
q-227 0 -282 -217h536q-13 99 -83.5 158t-170.5 59zM529 875l-186 -105l-21 35l176 121z" />
    <glyph glyph-name="ecircumflex" unicode="&#xea;" horiz-adv-x="852" 
d="M772 376h-622v-18q0 -122 87 -209t209 -87q148 0 237 106l53 -45q-50 -62 -123 -96q-76 -35 -167 -35q-74 0 -143 29q-65 27 -116 78q-52 53 -78 116q-29 69 -29 143q0 156 96 258q47 49 115 79q68 28 152 28q71 0 131 -24q57 -22 102 -67q88 -86 94 -219zM443 653
q-227 0 -282 -217h536q-13 99 -83.5 158t-170.5 59zM266 811l160 155l160 -155l-41 -43l-119 124l-118 -124z" />
    <glyph glyph-name="edieresis" unicode="&#xeb;" horiz-adv-x="852" 
d="M772 376h-622v-18q0 -122 87 -209t209 -87q148 0 237 106l53 -45q-50 -62 -123 -96q-76 -35 -167 -35q-74 0 -143 29q-65 27 -116 78q-52 53 -78 116q-29 69 -29 143q0 156 96 258q47 49 115 79q68 28 152 28q71 0 131 -24q57 -22 102 -67q88 -86 94 -219zM443 653
q-227 0 -282 -217h536q-13 99 -83.5 158t-170.5 59zM334 856q20 0 34 -14t14 -34t-14 -34.5t-34 -14.5t-34.5 14.5t-14.5 34.5t14.5 34t34.5 14zM517 856q20 0 34.5 -14t14.5 -34t-14.5 -34.5t-34.5 -14.5t-34 14.5t-14 34.5t14.5 34t33.5 14z" />
    <glyph glyph-name="igrave" unicode="&#xec;" horiz-adv-x="230" 
d="M80 1v714h70v-714h-70zM11 875l32 51l176 -121l-22 -35z" />
    <glyph glyph-name="iacute" unicode="&#xed;" horiz-adv-x="230" 
d="M80 1v714h70v-714h-70zM219 875l-186 -105l-21 35l176 121z" />
    <glyph glyph-name="icircumflex" unicode="&#xee;" horiz-adv-x="230" 
d="M80 1v714h70v-714h-70zM-45 811l160 155l160 -155l-41 -43l-119 124l-118 -124z" />
    <glyph glyph-name="idieresis" unicode="&#xef;" horiz-adv-x="230" 
d="M80 1v714h70v-714h-70zM24 856q20 0 34 -14t14 -34t-14 -34.5t-34 -14.5t-34.5 14.5t-14.5 34.5t14.5 34t34.5 14zM207 856q20 0 34.5 -14t14.5 -34t-14.5 -34.5t-34.5 -14.5t-34 14.5t-14 34.5t14.5 34t33.5 14z" />
    <glyph glyph-name="ntilde" unicode="&#xf1;" 
d="M565 660q77 -71 77 -193v-466h-70v476q0 88 -50 138t-138 50q-47 0 -86.5 -13t-63.5 -30t-43.5 -40t-27.5 -37.5t-13 -27.5v-516h-70v714h70v-96q84 106 234 106q50 0 98 -16q50 -17 83 -49zM425 870q36 0 64 -28q26 -28 26 -68h-55q0 18 -10.5 29.5t-24.5 11.5
q-19 0 -45 -17q-41 -27 -78 -27q-43 0 -71 31q-25 30 -25 66h55q0 -16 11 -29t30 -13q21 0 48 17q38 27 75 27z" />
    <glyph glyph-name="ograve" unicode="&#xf2;" horiz-adv-x="888" 
d="M701 615q50 -49 78 -115q29 -69 29 -142t-29 -142q-27 -65 -78 -116q-49 -49 -116 -78q-66 -28 -141 -28q-76 0 -142 28q-65 29 -116 78q-52 53 -78 116q-28 66 -28 142t28 142q27 64 78 115t116 78q69 29 142 29q72 0 141 -29q67 -27 116 -78zM444 64q122 0 208 86
t86 208t-86 208t-208 86t-208 -86t-86 -208t86 -208t208 -86zM340 875l32 51l176 -121l-22 -35z" />
    <glyph glyph-name="oacute" unicode="&#xf3;" horiz-adv-x="888" 
d="M701 615q50 -49 78 -115q29 -69 29 -142t-29 -142q-27 -65 -78 -116q-49 -49 -116 -78q-66 -28 -141 -28q-76 0 -142 28q-65 29 -116 78q-52 53 -78 116q-28 66 -28 142t28 142q27 64 78 115t116 78q69 29 142 29q72 0 141 -29q67 -27 116 -78zM444 64q122 0 208 86
t86 208t-86 208t-208 86t-208 -86t-86 -208t86 -208t208 -86zM547 875l-186 -105l-21 35l176 121z" />
    <glyph glyph-name="ocircumflex" unicode="&#xf4;" horiz-adv-x="888" 
d="M701 615q50 -49 78 -115q29 -69 29 -142t-29 -142q-27 -65 -78 -116q-49 -49 -116 -78q-66 -28 -141 -28q-76 0 -142 28q-65 29 -116 78q-52 53 -78 116q-28 66 -28 142t28 142q27 64 78 115t116 78q69 29 142 29q72 0 141 -29q67 -27 116 -78zM444 64q122 0 208 86
t86 208t-86 208t-208 86t-208 -86t-86 -208t86 -208t208 -86zM284 811l160 155l160 -155l-41 -43l-119 124l-118 -124z" />
    <glyph glyph-name="otilde" unicode="&#xf5;" horiz-adv-x="888" 
d="M701 615q50 -49 78 -115q29 -69 29 -142t-29 -142q-27 -65 -78 -116q-49 -49 -116 -78q-66 -28 -141 -28q-76 0 -142 28q-65 29 -116 78q-52 53 -78 116q-28 66 -28 142t28 142q27 64 78 115t116 78q69 29 142 29q72 0 141 -29q67 -27 116 -78zM444 64q122 0 208 86
t86 208t-86 208t-208 86t-208 -86t-86 -208t86 -208t208 -86zM508 870q36 0 64 -28q26 -28 26 -68h-55q0 18 -10.5 29.5t-24.5 11.5q-20 0 -45 -17q-41 -27 -78 -27q-43 0 -71 31q-25 30 -25 66h55q0 -16 11 -29t30 -13q21 0 48 17q38 27 75 27z" />
    <glyph glyph-name="odieresis" unicode="&#xf6;" horiz-adv-x="888" 
d="M701 615q50 -49 78 -115q29 -69 29 -142t-29 -142q-27 -65 -78 -116q-49 -49 -116 -78q-66 -28 -141 -28q-76 0 -142 28q-65 29 -116 78q-52 53 -78 116q-28 66 -28 142t28 142q27 64 78 115t116 78q69 29 142 29q72 0 141 -29q67 -27 116 -78zM444 64q122 0 208 86
t86 208t-86 208t-208 86t-208 -86t-86 -208t86 -208t208 -86zM352 856q20 0 34 -14t14 -34t-14 -34.5t-34 -14.5t-34.5 14.5t-14.5 34.5t14.5 34t34.5 14zM535 856q20 0 34.5 -14t14.5 -34t-14.5 -34.5t-34.5 -14.5t-34 14.5t-14 34.5t14.5 34t33.5 14z" />
    <glyph glyph-name="divide" unicode="&#xf7;" horiz-adv-x="401" 
d="M80 322v55h241v-55h-241zM201 277q18 0 30.5 -12.5t12.5 -30.5t-12.5 -31t-30.5 -13t-31 13t-13 31t13 30.5t31 12.5zM201 422q-18 0 -31 13t-13 31q0 17 13 30t31 13t30.5 -13t12.5 -30q0 -18 -12.5 -31t-30.5 -13z" />
    <glyph glyph-name="oslash" unicode="&#xf8;" horiz-adv-x="888" 
d="M702 615q49 -49 78 -115q28 -66 28 -142t-28 -142q-29 -65 -78 -116q-51 -49 -116 -78q-66 -28 -142 -28q-62 0 -118 19l-53 -119h-55l62 139q-51 25 -93 67q-51 51 -78 116q-29 69 -29 142t29 142q28 66 78 115q49 50 115 78q69 29 142 29q68 0 131 -24l40 92h55
l-50 -113q46 -26 82 -62zM150 358q0 -84 43 -154t115 -107l238 537q-52 18 -102 18q-122 0 -208 -86t-86 -208zM444 64q122 0 208 86t86 208q0 80 -40 147.5t-106 106.5l-237 -534q44 -14 89 -14z" />
    <glyph glyph-name="ugrave" unicode="&#xf9;" 
d="M572 125v590h70v-714h-70v60q-117 -75 -245 -75q-108 0 -176 63q-71 68 -71 183v483h70v-483q0 -85 51 -138t136 -53q124 0 235 84zM257 875l32 51l176 -121l-22 -35z" />
    <glyph glyph-name="uacute" unicode="&#xfa;" 
d="M572 125v590h70v-714h-70v60q-117 -75 -245 -75q-108 0 -176 63q-71 68 -71 183v483h70v-483q0 -85 51 -138t136 -53q124 0 235 84zM464 875l-186 -105l-21 35l176 121z" />
    <glyph glyph-name="ucircumflex" unicode="&#xfb;" 
d="M572 125v590h70v-714h-70v60q-117 -75 -245 -75q-108 0 -176 63q-71 68 -71 183v483h70v-483q0 -85 51 -138t136 -53q124 0 235 84zM201 811l160 155l160 -155l-41 -43l-119 124l-118 -124z" />
    <glyph glyph-name="udieresis" unicode="&#xfc;" 
d="M572 125v590h70v-714h-70v60q-117 -75 -245 -75q-108 0 -176 63q-71 68 -71 183v483h70v-483q0 -85 51 -138t136 -53q124 0 235 84zM269 856q19 0 33.5 -14t14.5 -34t-14 -34.5t-34 -14.5t-34.5 14.5t-14.5 34.5t14.5 34t34.5 14zM452 856q20 0 34.5 -14t14.5 -34
t-14.5 -34.5t-34.5 -14.5t-34 14.5t-14 34.5t14 34t34 14z" />
    <glyph glyph-name="yacute" unicode="&#xfd;" horiz-adv-x="702" 
d="M552 381v334h70v-479q0 -127 -95 -193q-77 -52 -188 -52q-70 0 -135 19.5t-86.5 32t-33.5 21.5l42 46h-1l7 -4q6 -4 20.5 -11.5t30.5 -14.5q74 -29 156 -29q20 0 41.5 2.5t54.5 13t57 28t42 51.5t18 80v61q-84 -86 -211 -86q-61 0 -114 21q-51 21 -89 59q-78 78 -78 192
v242h70v-242q0 -90 59.5 -151t151.5 -61q50 0 90.5 13.5t64.5 35.5t36.5 38.5t19.5 32.5zM444 875l-186 -105l-21 35l176 121z" />
    <glyph glyph-name="thorn" unicode="&#xfe;" horiz-adv-x="700" 
d="M375 602q102 0 173 -71q72 -72 72 -173t-72 -173t-173 -72h-225v-112h-70v714h70v-113h225zM375 183q72 0 123.5 51.5t51.5 123.5t-51.5 123t-123.5 51h-225v-349h225z" />
    <glyph glyph-name="ydieresis" unicode="&#xff;" horiz-adv-x="702" 
d="M552 381v334h70v-479q0 -127 -95 -193q-77 -52 -188 -52q-70 0 -135 19.5t-86.5 32t-33.5 21.5l42 46h-1l7 -4q6 -4 20.5 -11.5t30.5 -14.5q74 -29 156 -29q20 0 41.5 2.5t54.5 13t57 28t42 51.5t18 80v61q-84 -86 -211 -86q-61 0 -114 21q-51 21 -89 59q-78 78 -78 192
v242h70v-242q0 -90 59.5 -151t151.5 -61q50 0 90.5 13.5t64.5 35.5t36.5 38.5t19.5 32.5zM249 856q19 0 33.5 -14t14.5 -34t-14 -34.5t-34 -14.5t-34.5 14.5t-14.5 34.5t14.5 34t34.5 14zM432 856q20 0 34.5 -14t14.5 -34t-14.5 -34.5t-34.5 -14.5t-34 14.5t-14 34.5t14 34
t34 14z" />
    <glyph glyph-name="Lslash" unicode="&#x141;" horiz-adv-x="564" 
d="M41 287l-29 47l213 130l29 -47zM150 714v-643h344l-10 -70h-404v713h70z" />
    <glyph glyph-name="lslash" unicode="&#x142;" horiz-adv-x="525" 
d="M41 287l-29 47l213 130l29 -47zM150 715v-644h305l-10 -70h-365v714h70z" />
    <glyph glyph-name="OE" unicode="&#x152;" horiz-adv-x="1326" 
d="M701 615q51 -49 78 -116q29 -67 29 -141q0 -73 -29 -142q-27 -65 -78 -116q-49 -49 -116 -78q-65 -28 -141 -28t-142 28q-65 29 -116 78q-49 51 -78 116q-28 66 -28 142t28 141q29 67 78 116q51 51 116 78q69 29 142 29q74 0 141 -29q67 -27 116 -78zM444 64
q122 0 208 86t86 208t-86 208t-208 86t-208 -86t-86 -208t86 -208t208 -86zM812 365v-294h434l-15 -70h-489v713h479v-70h-409v-209h341v-70h-341z" />
    <glyph glyph-name="oe" unicode="&#x153;" horiz-adv-x="1520" 
d="M701 615q50 -49 78 -115q29 -69 29 -142t-29 -142q-27 -65 -78 -116q-49 -49 -116 -78q-66 -28 -141 -28q-76 0 -142 28q-65 29 -116 78q-52 53 -78 116q-28 66 -28 142t28 142q27 64 78 115t116 78q69 29 142 29q72 0 141 -29q67 -27 116 -78zM444 64q122 0 208 86
t86 208t-86 208t-208 86t-208 -86t-86 -208t86 -208t208 -86zM1440 376h-622v-18q0 -122 87 -209t209 -87q148 0 237 106l53 -45q-50 -62 -123 -96q-76 -35 -167 -35q-74 0 -143 29q-65 27 -116 78q-52 53 -78 116q-29 69 -29 143q0 156 96 258q47 49 115 79q68 28 152 28
q71 0 131 -24q57 -22 102 -67q88 -86 94 -219zM1111 653q-227 0 -282 -217h536q-13 99 -83.5 158t-170.5 59z" />
    <glyph glyph-name="Scaron" unicode="&#x160;" horiz-adv-x="668" 
d="M501 326q39 -28 62 -64q25 -42 25 -90q0 -86 -74 -136q-64 -45 -167 -45q-52 0 -98.5 13t-75 29.5t-52 37.5t-31 30.5t-10.5 15.5l59 37l5 -6q5 -7 17 -19t27 -22q65 -46 159 -46q81 0 127 32q44 30 44 79q0 56 -57 97q-44 31 -148 70q-108 43 -149 71q-36 25 -56 55
q-23 37 -23 80q0 86 72 130q63 39 174 39q59 0 120 -19.5t86 -33t35 -21.5l-19 -29l-20 -29q-4 4 -27.5 17t-74.5 29t-100 16q-91 0 -137 -28q-39 -26 -39 -71q0 -43 49 -78q37 -25 135 -63q115 -45 162 -78zM334 841l118 125l42 -44l-160 -154l-161 154l42 44z" />
    <glyph glyph-name="scaron" unicode="&#x161;" horiz-adv-x="668" 
d="M502 326q40 -28 61 -64q25 -42 25 -90q0 -87 -74 -136q-64 -45 -167 -45q-52 0 -98.5 13t-75 29.5t-52 37.5t-31 30.5t-10.5 15.5l60 37h-1l5 -6q5 -7 17 -18.5t27 -22.5q67 -46 159 -46q79 0 128 33q43 29 43 78q0 56 -57 97q-43 31 -147 70q-111 44 -150 71
q-37 25 -56 56q-23 35 -23 79q0 86 72 130q65 40 174 40q117 0 242 -75l-20 -29l-20 -29q-4 4 -27.5 17t-74.5 29.5t-100 16.5q-90 0 -137 -29q-39 -26 -39 -71q0 -44 49 -77q34 -24 135 -63q119 -48 163 -79zM334 841l118 125l42 -44l-160 -154l-161 154l42 44z" />
    <glyph glyph-name="Ydieresis" unicode="&#x178;" horiz-adv-x="624" 
d="M500 714h84l-237 -360v-353h-70v353l-237 360h84l188 -286zM220 856q20 0 34 -14t14 -34t-14 -34.5t-34 -14.5t-34.5 14.5t-14.5 34.5t14.5 34t34.5 14zM403 856q20 0 34.5 -14t14.5 -34t-14.5 -34.5t-34.5 -14.5t-34 14.5t-14 34.5t14.5 34t33.5 14z" />
    <glyph glyph-name="Zcaron" unicode="&#x17d;" horiz-adv-x="730" 
d="M642 714l-431 -643h439v-70h-570l431 643h-395v70h526zM365 841l118 125l42 -44l-160 -154l-161 154l42 44z" />
    <glyph glyph-name="zcaron" unicode="&#x17e;" horiz-adv-x="731" 
d="M643 715l-431 -644h439v-70h-571l431 644h-395v70h527zM366 841l118 125l42 -44l-160 -154l-161 154l42 44z" />
    <glyph glyph-name="circumflex" unicode="&#x2c6;" horiz-adv-x="480" 
d="M80 611l160 155l160 -155l-41 -43l-119 124l-118 -124z" />
    <glyph glyph-name="caron" unicode="&#x2c7;" horiz-adv-x="481" 
d="M241 641l118 125l42 -44l-160 -154l-161 154l42 44z" />
    <glyph glyph-name="ring" unicode="&#x2da;" horiz-adv-x="379" 
d="M190 778q45 0 77 -32t32 -77q0 -46 -32 -78t-77 -32q-46 0 -78 32t-32 78q0 45 32 77t78 32zM190 612q23 0 39.5 16.5t16.5 40.5q0 23 -16.5 40t-39.5 17q-24 0 -40.5 -17t-16.5 -40q0 -24 16.5 -40.5t40.5 -16.5z" />
    <glyph glyph-name="tilde" unicode="&#x2dc;" horiz-adv-x="469" 
d="M299 670q36 0 64 -28q26 -28 26 -68h-55q0 18 -10.5 29.5t-24.5 11.5q-19 0 -45 -17q-41 -27 -78 -27q-43 0 -71 31q-25 30 -25 66h55q0 -16 11 -29t30 -13q21 0 48 17q38 27 75 27z" />
    <glyph glyph-name="quoteleft" unicode="&#x2018;" horiz-adv-x="247" 
d="M167 696q-30 -22 -35 -58q15 -3 25 -14.5t10 -27.5q0 -18 -13 -31t-31 -13t-30.5 13t-12.5 31q0 39 27 74t48 45z" />
    <glyph glyph-name="quoteright" unicode="&#x2019;" horiz-adv-x="247" 
d="M124 715q18 0 30.5 -13t12.5 -31q0 -39 -27 -74t-48 -45l-12 19q30 23 35 58q-15 3 -25 14.5t-10 27.5q0 18 13 31t31 13z" />
    <glyph glyph-name="quotesinglbase" unicode="&#x201a;" horiz-adv-x="247" 
d="M124 88q18 0 30.5 -13t12.5 -31q0 -38 -27.5 -73.5t-47.5 -44.5l-12 18q30 23 35 58q-15 3 -25 15t-10 27q0 18 13 31t31 13z" />
    <glyph glyph-name="quotedblleft" unicode="&#x201c;" horiz-adv-x="371" 
d="M291 696q-30 -22 -35 -58q15 -3 25 -14.5t10 -27.5q0 -18 -13 -31t-31 -13t-30.5 13t-12.5 31q0 39 27 74t48 45zM167 696q-30 -23 -35 -58q15 -3 25 -14.5t10 -27.5q0 -18 -13 -31t-31 -13t-30.5 13t-12.5 31q0 39 27 74t48 45z" />
    <glyph glyph-name="quotedblright" unicode="&#x201d;" horiz-adv-x="371" 
d="M124 715q18 0 30.5 -13t12.5 -31q0 -39 -27 -74t-48 -45l-12 19q30 23 35 58q-15 3 -25 14.5t-10 27.5q0 18 13 31t31 13zM248 715q18 0 30.5 -13t12.5 -31q0 -39 -27 -74t-48 -45l-12 19q30 23 35 58q-15 3 -25 14.5t-10 27.5q0 18 13 31t31 13z" />
    <glyph glyph-name="quotedblbase" unicode="&#x201e;" horiz-adv-x="371" 
d="M124 88q18 0 30.5 -13t12.5 -31q0 -38 -27.5 -73.5t-47.5 -44.5l-12 18q30 23 35 58q-15 3 -25 15t-10 27q0 18 13 31t31 13zM248 88q18 0 30.5 -13t12.5 -31q0 -38 -27.5 -73.5t-47.5 -44.5l-12 18q30 23 35 58q-15 3 -25 15t-10 27q0 18 13 31t31 13z" />
    <glyph glyph-name="dagger" unicode="&#x2020;" horiz-adv-x="377" 
d="M160 -106v896h55v-896h-55zM80 322v55h217v-55h-217z" />
    <glyph glyph-name="daggerdbl" unicode="&#x2021;" horiz-adv-x="424" 
d="M184 -106v896h55v-896h-55zM80 447v45h264v-45h-264zM80 241v45h264v-45h-264z" />
    <glyph glyph-name="bullet" unicode="&#x2022;" horiz-adv-x="285" 
d="M142 398q26 0 44.5 -18.5t18.5 -44.5t-18.5 -44t-44.5 -18t-44 18.5t-18 43.5q0 26 18 44.5t44 18.5z" />
    <glyph glyph-name="ellipsis" unicode="&#x2026;" horiz-adv-x="741" 
d="M124 88q18 0 30.5 -13t12.5 -31t-12.5 -30.5t-30.5 -12.5t-31 12.5t-13 30.5t13 31t31 13zM371 88q18 0 30.5 -13t12.5 -31t-12.5 -30.5t-30.5 -12.5t-31 12.5t-13 30.5t13 31t31 13zM618 88q18 0 30.5 -13t12.5 -31t-12.5 -30.5t-30.5 -12.5t-31 12.5t-13 30.5t13 31
t31 13z" />
    <glyph glyph-name="lira" unicode="&#x20a4;" horiz-adv-x="688" 
d="M559 100l49 -24q-1 -3 -5.5 -10.5t-17.5 -21t-30 -25t-45 -20.5t-60 -9q-47 0 -147 27q-118 33 -167 21l-22 -5l-20 43l16 13q88 76 88 168h-118v45h115q-3 19 -18 79q-2 5 -4 16t-4 17h-89v45h80q-5 30 -5 53q0 81 56 142.5t160 61.5q35 0 68 -10.5t56 -25t42 -31
t27 -26t10 -12.5l-44 -33q0 1 -5 6.5t-16 16t-24 19.5q-55 41 -114 41q-78 0 -119.5 -44t-41.5 -105q0 -23 5 -53h324v-45h-314q2 -6 6 -20q16 -68 19 -92h289v-45h-286q0 -19 -2 -29q-8 -71 -58 -132q39 -3 125 -26q90 -25 132 -25q22 0 41.5 5.5t31 13t20.5 16.5t12 13
t4 7z" />
    <glyph glyph-name="Euro" unicode="&#x20ac;" horiz-adv-x="707" 
d="M432 661q-21 0 -35.5 -1.5t-44 -12t-50 -30t-40.5 -60.5t-29 -98h306v-45h-311q-2 -34 -2 -56t2 -56h311v-45h-306q9 -57 29 -98t40.5 -60.5t50 -30t44 -12t35.5 -1.5q40 0 80 13.5t60 27.5l20 13l35 -43l-6 -4q-6 -4 -15.5 -10t-22.5 -13t-29.5 -13.5t-35 -12.5
t-41.5 -9.5t-45 -3.5q-116 0 -180 73q-39 42 -59 111q-10 30 -16 73h-97v45h93q-2 36 -2 56t2 56h-93v45h97q6 41 16 73q19 67 59 111q65 73 180 73q106 0 195 -67l-17 -21l-18 -22q0 2 -20 14.5t-59.5 26.5t-80.5 14z" />
    </font>
</defs>
</svg>
